/* XPM */
static char *_b99bc382f3b4c20e4de4c6f20fa9003eFYfTAFFlNkn8LWg[] = {
/* columns rows colors chars-per-pixel */
"60 60 252 2 ",
"   c #141A00",
".  c #361A02",
"X  c #310800",
"o  c #182701",
"O  c #133205",
"+  c #39250A",
"@  c #383617",
"#  c #2B2F0E",
"$  c #4B1204",
"%  c #45380B",
"&  c #4C2F10",
"*  c #652817",
"=  c #4E3B22",
"-  c #6E3827",
";  c #2F5115",
":  c #2A6718",
">  c #356819",
",  c #36751B",
"<  c #276B10",
"1  c #375728",
"2  c #334D26",
"3  c #1E6524",
"4  c #286B25",
"5  c #336D25",
"6  c #376829",
"7  c #2E732A",
"8  c #33732C",
"9  c #397828",
"0  c #276E33",
"q  c #386937",
"w  c #2D7437",
"e  c #387937",
"r  c #175D18",
"t  c #494D13",
"y  c #485819",
"u  c #535019",
"i  c #46651D",
"p  c #4B4826",
"a  c #495729",
"s  c #575728",
"d  c #5A5734",
"f  c #535030",
"g  c #694C33",
"h  c #6E512E",
"j  c #496523",
"k  c #45792B",
"l  c #476737",
"z  c #457B37",
"x  c #557735",
"c  c #586D33",
"v  c #6A6636",
"b  c #634F1A",
"n  c #367C46",
"m  c #2C7A45",
"M  c #7A5D42",
"N  c #596946",
"B  c #477B45",
"V  c #597848",
"C  c #567D57",
"Z  c #696947",
"A  c #786649",
"S  c #777C58",
"D  c #6B7850",
"F  c #7A7962",
"G  c #535B43",
"H  c #943D27",
"J  c #8C341C",
"K  c #99472C",
"L  c #8A4736",
"P  c #974A38",
"I  c #8B5434",
"U  c #A64A35",
"Y  c #A8543D",
"T  c #AE4C39",
"R  c #86633D",
"E  c #995944",
"W  c #8C5843",
"Q  c #A85A48",
"!  c #B45946",
"~  c #9A6B54",
"^  c #857656",
"/  c #916D50",
"(  c #A86755",
")  c #BA6956",
"_  c #A6745B",
"`  c #B86C57",
"'  c #A97A63",
"]  c #BB7966",
"[  c #BA6E61",
"{  c #947C60",
"}  c #C26F5A",
"|  c #CB7B68",
" . c #3C8337",
".. c #438329",
"X. c #43823B",
"o. c #478838",
"O. c #548B3A",
"+. c #53903F",
"@. c #61803C",
"#. c #398447",
"$. c #3C8956",
"%. c #3D935B",
"&. c #288D52",
"*. c #389A63",
"=. c #37AC71",
"-. c #448542",
";. c #458A43",
":. c #4B8B44",
">. c #4D8D4B",
",. c #468849",
"<. c #548A47",
"1. c #4D924C",
"2. c #4B9347",
"3. c #56954B",
"4. c #468A56",
"5. c #548A56",
"6. c #4D9253",
"7. c #44945D",
"8. c #499659",
"9. c #539353",
"0. c #549A54",
"q. c #549B5C",
"w. c #599958",
"e. c #668849",
"r. c #659955",
"t. c #678F53",
"y. c #5BA259",
"u. c #67A45B",
"i. c #73A45C",
"p. c #4B9C64",
"a. c #489767",
"s. c #539B64",
"d. c #579A69",
"f. c #529369",
"g. c #768C65",
"h. c #659867",
"j. c #7A9A74",
"k. c #6E9268",
"l. c #4CA36B",
"z. c #5CA365",
"x. c #55A469",
"c. c #4CA873",
"v. c #53A474",
"b. c #5AA574",
"n. c #5BAA74",
"m. c #54AA7A",
"M. c #5BAC7C",
"N. c #57A777",
"B. c #5AB27B",
"V. c #45B57A",
"C. c #63A463",
"Z. c #63A96B",
"A. c #68A868",
"S. c #76A565",
"D. c #6BB369",
"F. c #75B76B",
"G. c #65AA77",
"H. c #76A976",
"J. c #63B37C",
"K. c #6BB47C",
"L. c #6AB576",
"P. c #74B776",
"I. c #79C47B",
"U. c #8F825C",
"Y. c #978767",
"T. c #889571",
"R. c #B4826A",
"E. c #BB8A73",
"W. c #B9947A",
"Q. c #A98E71",
"!. c #82AD78",
"~. c #CA8773",
"^. c #D88976",
"/. c #CE8771",
"(. c #88C179",
"). c #5CAD81",
"_. c #5BB483",
"`. c #5CBB86",
"'. c #6BBA84",
"]. c #64BC8B",
"[. c #6BBC8C",
"{. c #66B686",
"}. c #77B987",
"|. c #67BD93",
" X c #73BD94",
".X c #77BB97",
"XX c #66AC84",
"oX c #57CB90",
"OX c #67C38C",
"+X c #77C689",
"@X c #6BC393",
"#X c #6CC49A",
"$X c #68C696",
"%X c #73CC95",
"&X c #73C49C",
"*X c #7BC59A",
"=X c #73CB9C",
"-X c #7BCC9C",
";X c #78C794",
":X c #7AD29C",
">X c #78D19A",
",X c #69D498",
"<X c #74CCA2",
"1X c #7BCDA2",
"2X c #79C9A4",
"3X c #7BD3A4",
"4X c #7BD4AA",
"5X c #77D6A5",
"6X c #73D6A9",
"7X c #74E5AA",
"8X c #73E4AC",
"9X c #959982",
"0X c #90B38C",
"qX c #A7B898",
"wX c #B1AC91",
"eX c #D79A84",
"rX c #E59886",
"tX c #EDAB95",
"yX c #F0B29E",
"uX c #84C988",
"iX c #85CA98",
"pX c #82D49D",
"aX c #88D595",
"sX c #95D998",
"dX c #91CC91",
"fX c #85CCA4",
"gX c #97CAA2",
"hX c #82D4A4",
"jX c #83D5AA",
"kX c #85DBAB",
"lX c #88DAAA",
"zX c #96D8A8",
"xX c #8ADBB1",
"cX c #9CDAB5",
"vX c #A4CBA4",
"bX c #A5D4AA",
"nX c #A8DBB4",
"mX c #B6CDAA",
"MX c #89E2AD",
"NX c #9AE3A6",
"BX c #8BE4B4",
"VX c #97E8B8",
"CX c #96F2BD",
"ZX c #A8E9BB",
"AX c #B3F9BB",
"SX c #ACEEB6",
"DX c #A7C49B",
"FX c #FFC3AF",
"GX c #C3E2BA",
"HX c #9BF3C2",
"JX c #A4F8C7",
"KX c #ADF2C5",
/* pixels */
"<X6X6X4X4X4X4X4X<X=X#X#X<X<X=X=X1XxXBXlX:X>X,XOXOXB.x.p.*.l.L.>XaXaX;X%XpXMXMX7X:X,X<X$X|.|.$X6X6X<X2XxXxX4X3XkXMX4X5X>X",
"<X<X<X4X4X4X6X<X#X|.|.#X=X3X-X-X-XhXlXpX:X:X%XOX`.I.B.c.l.x.J.+X;X>X>XaXpXpXpXpX:X>X$X$X|.|.#X6X<X<XxXxXxX6X>X3XkX3X:X>X",
"#X<X<X2X4X4X2X2X|.|.|..X<X3X<X3X-X:X-X%X>X>X,XB.c.B.B.B.B.B.B.L.I.OXaX7X:X:X3X7X5X<XOX`.|.#X<X<X2X2XjXxXkX=X@X#X6X3X>X-X",
" X#X&X2X4XjX4X4X2X&X<X2XhXjXjXkXhX:X@XOX%X%XOXV.*.c.OXOX%X%XJ.x.c.I.+XaX:X>X3XMXMX4X#X$X<X4X4XjXfXjXjXjX1X#X[.@X-X=X=X:X",
"|..X.X2XfXjXxXxXxXjXxXxXBXxXlXxXkX:X@XOX@XOXB.c.=.B.OX:XVXCX%Xn.p.n.OX>X:X>X:X7XMX7X3X-X3XkXcXVXxXjX-X*X X X[. X=X=X1X3X",
".X.X.X.X2XfXfXxXxXjXxXxXkXjXhX4X5X=XOX].oXOXB.c.l.B.>XMXCXAX:Xn.%.l.B.+X>X%X@X%X-X:X3X-X*XhXlXlXfXiX*X X X@X X;X&X-X1X3X",
"2X.X.X.X.XXX.X.X.X X X&X&X[.|.|.@X@XOXoX].`.`.].J.,X7XNXCXSXpXB.%.%.x.OX>X+XB.c.x.`.OX'.{.[.XXG.K.}.*X*X*X*X*X*XpXfX2XjX",
"cXcX0XXXXXXXXX).N.v.N.).M.v.c.m.`.`.OXOX`._.].@X>XMXVXMXVXCX:XB.%.%.l.OX>XOXc.&.$.a.x.b.b.d.8.n f.XXiXzXiX*XiX1XfXjXjX2X",
"cXcX2X.XXX).C C m m *.a.a.%.a.l._._.`.`.].@X2XjXCXVXCXCXVXMX-XG.a.a.c.`.OXB.%. .m m $.7.a.4.0 r n h.fXzXzXfX0X-XfXfXfXjX",
"fXcX2X.XXXXX).).).C a.m.v.b.).)._._.)._._.[.*XjXVXVXJXKXSXVX;Xn.a.a.l.N.n.x.%.#.%.8.s.x.d.f.B q 4.G.}..XiX.X2X1X2XfXjX2X",
".X2X0X.X2X2X2X#X|.|.|.|.[.@X|.]._.c.c.c.).[.2XjXSXCXKXKXHXNX;Xd.a.a.a.*.%.7.l.x.J.K.'.P.}.K.F.A.H.G.A.d.G.}. XiX2XiX1X2X",
"XXXXXX.XfXxXxXBXxXxXxXxXBXlX1X|.).=.%.a.v.XX.XcXZXZXKXKXcXzX}.f.a.a.a.*.#.7.B.;XaXzXNXNXsXzXNXNXiX0Xf.n 4.d.'.*X*X2X&X2X",
"f.).).|.<XxXHXHXJXJXJXJXJXHXxX<X).a.$.*.*.)..XfXZXZXKXcXzXfX}.f.*.$.$.m m 7.+XMXAXAXAXAXAXSXAXAXzXuX5.m m 4.G.&X&X2X2X2X",
").).).|.2X6XBXHXHXJXJXHXJXJXHX4X).).v.f.C ).XXgXZXnXnXgXgXgX.X5.C $.C m #.x.+XNXCXSXAXAXAXSXsXsXuX}.5.m n 4.G. X*X*X2X2X",
"#X<X#X#X|.|.#X6XxXVXHXHXHXJXHX4XfX.X X).f.C XXgXnXnXbXgXgXgX0Xf.n 4.$.$.a.G.>XaXNXsXNXSXSXsXP.A.A.A.f.,.C a.b.[. X&X2X4X",
"4X6X6X#X_.)._.`.xXVXHXBXHXJXJXHXcXxXgXXXf.G XX0XnXmXvXgXgXcX0XC n B 4.4.d.}.aXaXaX>XNXSXSXuXw.#.,.s.q.4.a.a.b.XX#X&X2X4X",
"6X8X6X,XoX*.*.B.CXVXVXCXJXKXJXJXcXKXnX}.f.C XX9XqXqXvXmXmXcXj.C n B f.b.H.}.iXdXaXaXsXSXNXI.>.7  .#.8.8.p.l.M.].#X<X6X4X",
"7X,X,XoXV.V.V.oX:X3XlXBXVXZXVXzXcXnXvXXXG C F { 9X9X9X9X9X9XC G 1 n C h.H.H.P.dXuXuXdXsXsXP.3.e  .#.0.y.l.x._.[.<X6XxX4X",
"7X,X,XoXoXoXOXOXoX].@XhXNXVXzXgXbXnXDXF 1 2 G N F F F F F C G @ ; 1 5.H.H.H.H.dX!.uXI.+XP.A.>.#.,.8.z.B.G.J.[.=X4X6X4XBX",
"8X,X7X,X,X:X7X@Xc.c.J. XzXnXcXgXvXnX0XC # o @ @ @ = = @ = = =   # 2 V j.!.H.H.uX0XP.H.A.C.0.9.>.y.n.L.K.'.+X-XkX4X6X6X4X",
"8X8X8X8X,X7X5XoXl.l.b.XXiXgXzXgX0XDX!.N @ # + . X + + X X + @ X @ a D g.T.!.!.S.D.A.d.9.<.9.0.w.y.n.L.L.'.;XhXBX4X4X<X<X",
"oXoXoXoXoX$XoXB.c.x.d.G.}.0X0X0XT.T.T.Z f f f g g g - - g g g G d v Z D S g.g.V t.t.<.B B ,.5.5.6.9.q.x.n.'.hXMX4X4X<X<X",
"V.oXV.=.=.V.c.l.v.d.d.k.j.j.k.C c v Z A / { { ~ ~ A W W ~ ~ ( ~ ^ ^ v g s d c N C V B q q B >.,.B e n #.4.v.;XkXjX4X<X<X",
"=.=.&.=.=.=.*.l.d.d.d.k.j.k.Z f @ = p A ' W.E.E.R.[ ( E.~.~.~.E.R._ W p & @ f Z D x l q q e B e w 0 0 0 n a.[.hX4X4X6X<X",
"oX=.=.=.=.=.c.).b.h.k.k.g.F Z p % $ t W W.eXeX^.~.[ } ^.rXeX| ~.] _ R - & + p v Z l l V B q q e q w w m n a.XX;X1X3X3X3X",
"oXoXoX8XoXoX|.XX'.9Xj.g.F D Z d g h h Q.tXyXtXrX| [ ) | | } } } ` ( E L g b s d a s V g.g.B B 4.5.f.q.d.f.d.N.{.[.#X3X3X",
"8X8X8X8XxXxXxXcXvXDXqXT.A g M A { ~ ~ eXFXFXtXrX~.| [ ) ! Q ! ! ! Q Q Q ( ~ h % # a g.!.0Xj.h.H.P.}.}.}.XXv.a.a.v.{.%X-X",
"8X8XHXHXHXcXZXZXGXGXmXT.d = g W R.[ R.tXFXFXtXrX~.| } ! K H K U T ! ) } ~.' h $ + p T.qXvX0XqXDXbXzXdXiX}.v.$.n a.M.@X-X",
"6XBXHXVXVXnXKXnXnXmXwXY.g = g W E.] ~.tXFXFXtXrX^.| } Y H J H H T T ) } ~.] W & % d T.0XqX0XvXbXbXgX0X}.XXb.4.m a.M.@X:X",
"$X#X4XxXVXKXnXvX9X9XY.^ M L W ~ ( ( ] eXFXyXrX| | | } U H H H K T T ! ) ( ( W h M Z S S g.j.0XgXuXXXG.G.G.G.a.n v.[.-XpX",
"m._.[.iXnXnXmX0XG N M F ~ ~ ~ ( E W Q | rXrX^.^.^.^.} Y K U U U T T Y ! Q E ~ { { ^ Z f N k.H.9XH.d.C 4.f.d.v.v.+X&XpXpX",
"m.m.M. XzXKXmX0XG = g A ' ' [ E L H E [ ^.rXrXrX^.^.| ! Y Q T K T T Y Y P P ~ ' Q.S f 2 p C j.}.j.5.n m n 4.N.{.-X3XhX3X",
"l.n.b.'.gXbXvXj.# # = A ' E.' ( I K P Q [ | | | [ [ ( W L P W E E T U P I I _ W.Q.^ p o # q C j.h.1.#.w w $.x.I.,X>X>X=X",
"N.M.b.K.}.DX0Xt.# o + g Y.eXeX' E Y P Q ( ( E H - H * * $ * - H H P K L I Y _ W.Q.^ p o O ; l 5.3.;. .#.#.%.l.B.`.`.$X$X",
"{.{.b.G.XXXXk.l O     f ~ wX9X[ E E E Q E P - * $ $ $ $ X X * L I K I K I / Y.W.Q.^ y   O O 1 z -.#.;.6.8.p.l.l.m._.`.$X",
"OX|.N.N.v.h.f.q O     p ^ Q.W._ I I R E E h * & $ X X X X X $ - I I I h I R Y.Q.Y.g.a o O O ; q  . .1.q.x.y.p.l.c.`.@X#X",
"<X#X).).v.f.h.B 2 # 2 d S U.U./ h I R I I b & & . . . + . X & b I b b I h v ^ U.U.A a O O ; 1 e z ,.>.q.y.x.l.v.B.OX=X:X",
"<X3X|.|.).XXXXh.q q c Z A U.U.v v b v v h b t % % % % % % ; t v b b b b b b v v c c 1 ; r 1 l ,.:.:.1.q.s.x.z.M.'.;XjXlX",
"<X4X<X&X[.XX XG.4.5.t.e.e.^ v x b v v b u u t t ; t t t t t u s b u t t j b j d a l 1 ; 6 q B <.3.>.9.w.q.x.Z.XX[.pXlXxX",
"$X<X6X6X XXX.XXXf.h.k.g.e.e.t.x c c c i y ; t y s y y y y j j y i i y y y j y j a l 1 6 l V <.9.>.<.3.w.q.s.n.G.[.-XxXBX",
"#X#X<X#X`.B.M.n.d.A.S.S.S.S.i.e.@.O.k i > ; > k x j i > ; ; > > i i i b c x x x x V V :.<.<.<.z -.<.w.h.A.L.'.'.*XpXjXkX",
"|.|.#X_.m.a.a.8.G.A.H.F.!.!.!.i.i.+.@.i > > i k O.k > > < > ; : i i ....O.O.@.@.t.r.r.t.3.e.:.q z :.w.A.P.}.+X;X;XpXjXkX",
"#X#X|.).a.%.%.7.K.I.uXuXsX(.!.!.F.u.+. .> > k k O.k , > > > < < , i ..O.O.e.r.i.i.i.i.u.r.r.X.5 8 z w.D.+XuXiXiXpXpXhXhX",
"|.|._.).a.*.l.l.+X;XaXdXsXsX(.(.F.F.u...< > k ..O....., , ..< < < ....O.O.r.i.i.S.i.S.u.i.r.X.5 z -.9.A.L.+XaXpXhXfX4X3X",
").).).).l.l.n.I.I.aXaX(.(.(.(.F.D.I.y.o..... .o.2.+. . .o. ...< < < ..O.O.+.3.r.r.r.u.u.r.3.3.<.3.1.9.0.z.K.+XpXhXhXjXhX",
").).f.).B.V.I.>XaX(.7XI.(.I.D.D.y.D.y.2. . .+.0.3.3.o. . . ...< < < ....O.O.+.r.3.r.r.i.u.r.u.i.u.w.:.#.,.s.K.;XpX3X3X3X",
"l.f.).f.I.I.I.MXMXsXaXI.F.F.D.y.0.2.2.2. . .2.0.y.0.+. .+. . .< < ....+.O.+.+.+.+.e.r.r.y.r.u.F.u.0. .w w 7.Z.[.-X:X:X:X",
"a.f.v.v.I.I.7XI.aXaXI.I.F.D.y.y.0.2. .%.2.2. .2.y.y.2.2.2.0.o.7 ........O.O.+.+.+.+.+.+.3.r.u.F.y.1.e 4 0 #.l.J.@X#X=X-X",
"s.s.x.q.z.Z.A.D.L.D.A.y.0.2.o.;. . . .%.y.y.y.x.z.z.y.y.C.u.0.o...< ,  ., k k e z z O.z X.O.<.r.+.e 7 3 0 #.p.B.[.=X-X=X",
"h.s.q.q.6.6.>.1.2.;.o.X...e 9 9  .7  .0.D.I.L.L.Z.C.Z.Z.D.Z.y.o.....9 , , > 5 9 9 9 k 6 6 k z X. .7 3 3 0 #.8.v.].@X=X=X",
"z.s.6.,.n w 0 4 4 4 4 4 4 : 4 7  .4  .2.D.P.I.P.L.H.L.L.P.P.y.1......., > : : 5 6 6 8 5 6 5 5 5 4 3 r 3 0 w %.p.N.].@X#X",
"Z.z.q.,.e w 4 3 3 3 : : 4 5 7 7  . . .2.y.C.D.L.D.L.H.P.P.P.A.3. ....., 5 5 6 5 9 9 q 6 5 5 5 4 7 4 4 0 w #.$.a.l._.@X#X",
"K.L.Z.8.4.#. .w 8 w e e  . .X.o.;.o.;.;.;.,.9.C.H.D.A.C.u.C.w.;.9  .o.X.X.X.z X.z z e z z 9 e e  . . .#.&.#.%.7.m._.&X<X",
"'.'.J.x.8.4.#.#.#.#.;.;.,.:.>.:.;.:.:.z 7 8 ,.q.P.P.A.w.9.9.:.e 5 9 k o.:.:.<.>.,.,.,.-.-.-.-.;.#.#.#.2.8.7.%.%.v.`.=X3X",
"[.'.J.x.8.8.4.#.4.6.1.9.9.:.<.2.:.<.:.e 5 8 -.w.P.F.C.9.,.:.X.7 7 9 z ;.>.9.9.9.5.6.5.9.5.9.1.6.#.2.2.7.8.8.7.a.v.{.=X1X",
"OX'.{.B.x.l.l.q.q.6.6.1.9.9.>.:.:.3.<.e 8 9 X.w.u.A.w.,.e -.e 4 7 9 X.;.<.>.9.6.9.9.q.w.s.q.q.1.1.7.6.x.x.l.p.l.m.].2X1X",
"=X=X@X].B.B.G.n.n.Z.z.z.h.w.9.<.:.X.z z 9 -.:.X.X. .e e w 7 7 e X.X.;.>.>.6.6.6.8.w.s.C.z.z.Z.z.Z.l.B.D.I.J.OX'.@X=X3XjX",
"3X=X&XOX].{.J.J.L.G.Z.Z.Z.C.w.w.<.:.:.;.o.2.<.X.8 8 8 e w 0 e e ;.>.1.1.>.6.>.8.d.d.z.G.n.L.L.L.I.I.+X+X+X+X%X>X:XhXxXxX",
"6X6X=X$X@X].].'.'.'.L.L.Z.A.C.r.w.w.r.w.r.u.u.o.5 4 7 e e  .#.1.w.0.0.9.6.6.9.8.s.x.G.J.L.K.K.K.I.,X,X>XaX:XpXpXjXjXjXxX",
"<X6X=X$XOXOX].{.}.K.K.A.Z.Z.C.r.A.u.u.i.D.F.A.+.7 7 w  .;. .,.y.y.y.q.0.q.9.8.q.s.z.n.L.J.J.I.K.I.I.I.aX>X:XMXMXjXjXjX2X"
};
