/* XPM */
static char *caa42e9e86a7475db3faf1f5cb3dda91rGtsrk1TXfnxvgGq[] = {
/* columns rows colors chars-per-pixel */
"60 60 152 2 ",
"   c #3D4566",
".  c #414765",
"X  c #444B67",
"o  c #4A4E66",
"O  c #444C6A",
"+  c #494F69",
"@  c #4E5166",
"#  c #4B536D",
"$  c #535667",
"%  c #595662",
"&  c #5D5B65",
"*  c #51556A",
"=  c #55586A",
"-  c #5B5E6C",
";  c #4F5571",
":  c #4F5870",
">  c #505670",
",  c #565F73",
"<  c #635E61",
"1  c #5E6576",
"2  c #5E6679",
"3  c #5F6879",
"4  c #666163",
"5  c #696363",
"6  c #66656B",
"7  c #6C6A6B",
"8  c #776C62",
"9  c #706E6E",
"0  c #7C7165",
"q  c #76716B",
"w  c #7A756E",
"e  c #606674",
"r  c #656A75",
"t  c #6A6D74",
"y  c #626579",
"u  c #626979",
"i  c #696C7B",
"p  c #706F70",
"a  c #6C7077",
"s  c #6C7078",
"d  c #717070",
"f  c #7B7770",
"g  c #7E7B74",
"h  c #8C795F",
"j  c #877761",
"k  c #887761",
"l  c #8D7D64",
"z  c #81786A",
"x  c #907F65",
"c  c #807E77",
"v  c #807E78",
"b  c #9E875F",
"n  c #A48A5E",
"m  c #A88D5E",
"M  c #8F8066",
"N  c #8D8069",
"B  c #918066",
"V  c #9D8660",
"C  c #9F8963",
"Z  c #92846A",
"A  c #988A6E",
"S  c #848074",
"D  c #888173",
"F  c #828079",
"G  c #928770",
"H  c #948A73",
"J  c #998E74",
"K  c #9B9177",
"L  c #9B9178",
"P  c #A38C63",
"I  c #A38F69",
"U  c #A79064",
"Y  c #A99266",
"T  c #A5926C",
"R  c #AA956A",
"E  c #AE996C",
"W  c #B0996A",
"Q  c #A99771",
"!  c #A59877",
"~  c #AC9C76",
"^  c #AD9E78",
"/  c #B19E72",
"(  c #B3A075",
")  c #B4A378",
"_  c #B8A678",
"`  c #6E7582",
"'  c #717682",
"]  c #767E84",
"[  c #727983",
"{  c #7B7B85",
"}  c #707789",
"|  c #767D88",
" . c #787F8A",
".. c #787F8A",
"X. c #747B91",
"o. c #788085",
"O. c #7C838D",
"+. c #7E848E",
"@. c #7E8592",
"#. c #838289",
"$. c #868E8D",
"%. c #8A928F",
"&. c #838A90",
"*. c #898F94",
"=. c #898D9B",
"-. c #8B9391",
";. c #8A9391",
":. c #8B9491",
">. c #8C9491",
",. c #8D9591",
"<. c #8E9692",
"1. c #8D9397",
"2. c #8D9397",
"3. c #8F9498",
"4. c #929A93",
"5. c #91979A",
"6. c #989D9E",
"7. c #A2AA9C",
"8. c #8A8FA2",
"9. c #8F94A4",
"0. c #9A9FAE",
"q. c #9EA2A3",
"w. c #A6AAA6",
"e. c #AAADA9",
"r. c #AFB7A3",
"t. c #AEB6A2",
"y. c #AFB2AC",
"u. c #B1B9A4",
"i. c #B0B2AC",
"p. c #ACAFB1",
"a. c #B7B9B0",
"s. c #B8BAB1",
"d. c #B1B5BE",
"f. c #B4B8BC",
"g. c #BEBFBF",
"h. c #BDC5AB",
"j. c #BFC7AB",
"k. c #C1C9AC",
"l. c #C4C5BA",
"z. c #C7C8BB",
"x. c #C9C9BD",
"c. c #BFC2CB",
"v. c #C8CACE",
"b. c #D4D4C3",
"n. c #D8D8CE",
"m. c #DFDFD4",
"M. c #E6E5D4",
"N. c #E4E4DF",
"B. c #E9E8D8",
"V. c #DFE0E1",
"C. c #EBEBE5",
"Z. c #F1F1E5",
/* pixels */
"1 u o.4.t.h.k.j.h.h.h.h.h.h.j.h.h.h.h.h.h.h.h.h.h.h.h.h.h.h.h.h.h.h.h.h.h.h.h.h.h.h.h.h.h.h.h.h.h.h.h.h.k.k.h.t.4.o.3 1 ",
"1 u [ %.7.t.u.r.t.t.r.r.r.r.r.r.r.r.r.r.t.t.r.r.r.r.r.r.r.r.r.r.t.t.t.u.r.t.r.r.r.r.r.r.t.t.t.u.t.t.r.r.r.u.r.7.;.[ u 1 ",
"1 3 s o.$.,.<.,.;.;.:.:.:.:.:.:.:.:.:.:.;.;.:.:.,.:.,.:.;.,.;.>.:.:.>.,.,.:.;.,.;.:.:.,.:.:.:.:.,.;.;.;.,.,.,.$.o.a 3 1 ",
"1 3 3 3 u 3 u 3 3 3 1 1 3 3 3 3 3 2 3 3 3 2 2 3 u 3 3 2 2 2 2 2 3 3 y e 3 3 2 2 2 3 y 2 u 3 3 2 2 3 2 3 3 3 u u 3 3 3 1 ",
"3 1 1 ; + O O # + + # @ # + O + + # @ # @ o # + O O o # @ @ # o # + + O + o o o # @ # o + O # o @ @ @ o o + X O : 1 1 3 ",
"3 2 : #   X o % < < < < & $ # # $ % < 4 < < % $ # @ $ % < < < < & $ # # $ & < < < < % $ @ # $ & < < < & % o   X # : 1 3 ",
"3 3 , # O o % 8 h h h h 0 7 e - 7 0 j h h h 0 7 e e 7 0 k h h j 0 7 - 1 7 w j h h j 0 7 1 - 7 0 j k h h 8 < o X # 1 3 3 ",
"3 1 1 # O $ 5 k b P U C M q t t w N C P P C l f t t f l P P P C B w t t w x P P P C B w t t f N P P I C k 6 @ O + 1 3 3 ",
"u 3 1 + # * 7 N R E W R A g a a c H R W W R H v t t c A R W W R H c t t c A E W W R A g a s g J R E W T N 7 $ X ; , 2 3 ",
"3 1 1 #   * 7 G ~ / ( Q J c a a c J Q / ( Q J g a a c J Q ( / Q L g s s c J Q / ( Q J c a s g L ~ / ( Q A 9 * X # , 1 3 ",
"3 2 : # # * 9 H ~ ) _ ^ L v s s c K ^ ) ) ^ L F a a F L ^ ) ) ^ L F s s c L ^ ) ( ^ L F s s v L ^ ) ) ^ H t * O # , 2 r ",
"3 2 , #   * 9 H ~ _ _ ^ L F s s F K ^ ) ) ^ L v s s v L ^ ) ) ^ L F s s v L ^ _ ) ^ L v s s F L ( ) ) ^ H d * O # , 1 3 ",
"3 1 , #   : 9 H ~ ) ) ^ L F a s c L ^ ) ) ^ L v s s v L ^ ) ) ^ L g s s g L ^ ) ) ^ L v s s v L ^ ) ) ^ H 9 * O # 1 3 3 ",
"3 1 , # O $ 9 H ^ ) ) ^ L v s s c L ^ ) ) ^ L g s s v L ^ ) ) ^ L v s s v L ^ ) ) ^ L v s s g L ^ ) ) ^ H 9 * O # : 1 3 ",
"3 1 1 #   * p H ~ ) ) ^ L v s s v L ^ ) ) ^ L v s s v L ^ ) ) ^ L v s s g L ^ ) ) ^ L v s s v L ^ ) ) ^ H q # O # : 3 3 ",
"u 1 , # # * 9 H ^ ) ) ^ L v s s v L ^ ) ) ^ L v s s g L ^ ) ) ^ L v s s F L ^ ) ) ^ L v s s v L ^ ) ) ^ H 7 $ O # 1 2 3 ",
"3 2 , # O $ 9 H ^ ) ) ^ L v s s v L ^ ) ) ^ L c i i v L ^ ) ) ^ L v s s v L ^ ) ) ^ L g s s F L ^ ) ) ^ H 9 $ O : , 1 3 ",
"3 2 , # O $ 9 H ^ ) ) ^ L v s s v L ^ ) ) ^ L c s s v L ^ ) ) ^ L v s s v L ^ ) ) ^ L v s s g L ^ ) ) ~ H 9 $ O # , 1 3 ",
"3 1 , # O # 9 H ^ ( ) ^ L v s s v L ^ ) ) ^ L v d s v L ^ ) ) ^ L v a a v L ^ ) ) ^ L v s s v L ^ _ ) ^ H 9 : O # , 1 3 ",
"3 3 , ; O $ 9 H ^ ) ) ^ L v s s v L ^ ) ) ^ L v s s v L ^ ) ) ^ L F a a v L ^ ) ) ^ L v s s v L ^ ) ) ~ H 9 : # # , 1 3 ",
"3 1 1 # O # 9 H ^ ) ) ^ L v s s c L ^ ) ^ ^ L v s s v L ^ ) ) ^ L v i a v L ^ ) ) ^ K F s s v L ^ ) ) ^ H 9 $   # , 3 3 ",
"r 1 1 O + # 9 H ^ ) ) ^ L v s s c L ^ ) ) ^ L v s i v T ^ ) ) ^ L v a a v L ^ ) ) ^ K v s s g L ^ ) ) ^ H 9 $   # , 1 3 ",
"3 1 : # O $ 9 H ^ ) ) ^ L v s s v L ^ ) ) ^ L v s s g %.^ ) ) ^ L v a a v L ^ ) ) ^ L o.a s g L ^ ) ) ^ H 9 $ # # , 1 3 ",
"1 2 1 # O $ 9 H ^ ) ) ^ L F s s v L ^ ) ) ^ L v s s g L ^ ) ) ^ L v a i v L ^ ) ) ^ L g s s F L ^ ) ) ^ H 9 :   # , 3 3 ",
"3 1 , #   = p H ^ ) ) ^ K c s s g L ^ ) ) ^ L g s s v L ^ ) ) ^ L v s s v L ^ ) ) ^ L v a s c L ^ ) ) ^ H 9 $   # , 2 1 ",
"3 1 , #   : 9 H ^ ) ) ^ L F s s F L ^ ) ) ^ L v s s v L ^ ) ) ^ L v s a v L ^ ) ) ^ L v s s v L ^ ) ) ^ H 9 $ # # , 2 2 ",
"3 1 1 # O * 9 H ^ ) ) ^ L g s s g %.^ ) ) ^ L v s s v L ^ ) ) ^ L v s a v L ^ ) ) ^ L c s s c L ^ ) ) ^ H d *   # , 1 3 ",
"3 3 , # O * 9 H ^ ) ) ^ L v s s c ! ^ ) ) ^ L v d s v L ^ ) ) ^ L c s s v L ^ ) ) ^ L c s s c L ^ ) ) ^ H d ,   # 1 3 3 ",
"1 2 , # O * 9 H ( ) _ ^ L v s s c K / ) ) ^ L F s s v L ^ ) ) ^ L c a s v L ~ _ ) ^ L c a a c L ~ ) _ ~ H d $   # , 2 3 ",
"3 2 , # O * p H ^ ) ) ) L v s s c K ^ ) ) ^ L g s i v L ^ ) ) ^ L c a a v L ~ ) ) ^ L c s s v L ^ ) ) ~ H 9 * # # , 2 1 ",
"3 1 1 O O @ 7 D L ! ! L H g t s F L ^ / / ~ J c t s c J ~ ^ ^ ^ L F a a c J ~ ( ) ^ L v a s v L ^ ) ) ~ G 7 *   # , 3 3 ",
"3 3 1 # O # - a g S F g g s i s F L ^ / E T A g t t f A T W / ^ L v a a f G T E ~ ~ L v a a F L ~ ( E I N 7 * # + 1 3 3 ",
"3 1 , * O O : , u s s i t u 3 s v K / E R P x f i t w x P T / ~ L F s t w Z P R Q ^ L F a s v L ~ E E C j 5 @ O : : 2 3 ",
"u 1 1 * O # ` } @.@.o.] [ i u s c J Q E R I x f t t f Z P R E Q J g i t w Z P R E E J g t s g J Q E U C j 5 @ O ; 1 1 3 ",
"3 1 , # O : X.0.d.d.p.0.2.o.s s c Z Y R R T H c t a g H T R R I Z g t a g H T R R T Z g t t g A T U U V j 5 @ O # , 1 3 ",
"3 2 1     2 8.c.V.C.n.l.e.*.[ r q x P Y E ~ J c a i v J ~ E R C B w t a g K ~ E R C N w t t f M C n n V k 5 @ O # 1 3 u ",
"3 1 , +   3 9.v.C.Z.M.b.a.3.} t q l n U Q Q H c a a g J Q E R P Z w t a g J Q E R C Z f t t w M V n n V j 5 @ O # 1 1 3 ",
"3 1 , +   2 =.g.m.B.M.b.s.5.[ t 0 l x m U T x c t t w A T R E Q J g t t g G T R E Q J g a r q M b n n b j 5 @ O # : 1 3 ",
"3 1 , # # 1 O.p.z.b.b.z.y.2.[ t 0 l n n P P x f t t w B C Y E ~ K v a t q M P Y E ! K S a t w B V b b b l 5 @ X # , 2 3 ",
"r 3 , #   : ` 2.w.y.y.e.6.@.s t z x x n m x l w t t w x V I R R J g a t q B V U R E J g t t w l b n n b h 5 # O # 1 2 3 ",
"3 1 , # O O 1 [ +.&.&.+.o.` i t q x P n n n x w t t z x m m m m A f t r w l b P U C Z g t t w l b n n V j 5 @ O # , 2 r ",
"3 2 , # O + : 3 u s s u i 3 3 t f x x m m x x z t t w x x m m x l w t t w l b n P C M w t t w l C n n V j 5 @ O # 1 1 u ",
"3 1 1 ; O # = 6 q q q 9 9 t 3 t z x x n n n x q y 7 z x m m x m x w t t w x b n n V l w t t w B V n b b j 5 @ O # , 1 3 ",
"r 3 , # O + & 0 l M N l w 9 r t q x n n n x x z t i k h m x m m l w t t f l b n n V M w t t w l V n n V j 5 @ O # , 1 3 ",
"3 1 1 # O @ 5 j b n n b M w t t w x V n n x x w t r q x x m m x x w t t f l V n P V l w t t w l V n n b h 5 # O # , 2 2 ",
"3 1 , # O @ 5 k b m n b M w 7 t w x V P n P x f 7 i z x m x m x x f r t f x V P n V x w t t w l V n P b j 5 @ O # 1 3 2 ",
"2 2 , # O @ 5 j b n n b M w r a 0 x x n n P x f t r w x n m m x l w t t w l V n n V x f r t w x V n n b j 5 @ O # , 2 3 ",
"3 2 1 # O @ 5 j V n n b M w t t z x n n m x x q t i f l x n m m x w t t w l V n n V l w t t f x V n n b j 5 #   # 1 1 3 ",
"3 1 , #   # 5 k n m n x x z t t q x n n n n x z t t q l x P n x l f t t w x V n n x x z t t f x P P n x h 5 @ o # , 2 3 ",
"3 1 , # O # 5 k x m n n x z t t f x x n n x x q t t z l x m m n x w t t w x V n n n x z t t f l x P n n h 5 @ O # , 2 3 ",
"3 3 1 # O @ 5 k x m n n x w t i q x P n P V x f t t w x m n n x x f t t w x V n P x x w t t q x n n n x k 5 @ O # 1 1 3 ",
"r 1 , # + @ 5 l n m m n x f t p z x P P n P x z i i z x n m m P x f t t w x P n P P x z p t z x n m m n l 5 @ O ; , 1 3 ",
"3 2 , # O @ 5 h P P P x x f t r w x x P n P x q i t z l m x m x x q r t w x b n n x x w t y q l n n n P k < @ O # , 2 r ",
"3 2 , # O O & 8 k x h k z 7 - e 7 j h x k k z 7 - - 7 z h h x k z 7 e e 7 z k k l l j 7 6 y 7 z k h l k 8 < + O ; , 2 u ",
"u 3 1 # O X @ % < < < < < * * * = < < < < < < * ; ; = < 5 5 < < < * * > = < < < < < < = * * = < < < < < % @ X O ; , y y ",
"3 3 1 # O X X o + @ @ + o O O O O O + @ @ + o O o . o o o o o o + O O O O + o @ + + O O O O O o o o + o o O X O : , 1 y ",
", 1 : , > > > > ; ; ; ; ; ; > ; > ; ; ; ; ; ; ; ; ; > ; ; ; ; ; > ; > > ; > ; > ; ; ; ; ; ; ; ; > ; ; ; ; ; > > > , , , ",
"+ # # 1 u i ` i i i y ` i y i i ` y ` y y y i ` y i i i i y ` y i i i i i y i y ` y ` y i y i i ` y ` y y i ` y y > ; @ ",
"  O # y ' { { { { { } { { { { { { { { { { { { { { { { { { { { { { { { { { { { { { { { { { { { { { { { { { #.{ ' y ; O   ",
"  X # u { #.#.#.#.#.#.#.#.#.#.#.#.#.#.#.#.#.#.#.#.#.#.#.#.#.#.#.#.#.#.#.#.#.#.#.#.#.#.#.#.#.#.#.#.#.#.#.#.#.#.' y ; .   "
};
