/* XPM */
static char *f30ff2fdabc74490d995a4bf41901671ppljj9XAqrSqS3kB[] = {
/* columns rows colors chars-per-pixel */
"60 60 256 2 ",
"   c #001E03",
".  c #001C0A",
"X  c #001709",
"o  c #002503",
"O  c #012C02",
"+  c #00240B",
"@  c #012D0C",
"#  c #0C2C06",
"$  c #033303",
"%  c #0B3403",
"&  c #0B3B03",
"*  c #01340B",
"=  c #043A0C",
"-  c #0B3C0B",
";  c #083608",
":  c #123C03",
">  c #143B0C",
",  c #173A09",
"<  c #032B16",
"1  c #013314",
"2  c #0C3C13",
"3  c #073817",
"4  c #153C13",
"5  c #132F07",
"6  c #0A3823",
"7  c #133D25",
"8  c #233F33",
"9  c #0D4203",
"0  c #0A460D",
"q  c #134302",
"w  c #17450B",
"e  c #0C4213",
"r  c #07471A",
"t  c #144214",
"y  c #134A15",
"u  c #1B4C15",
"i  c #134B1B",
"p  c #1A4C1B",
"a  c #174419",
"s  c #0B541A",
"d  c #1C5313",
"f  c #19551B",
"g  c #224A1A",
"h  c #24571A",
"j  c #094828",
"k  c #184927",
"l  c #085428",
"z  c #1B5424",
"x  c #13552B",
"c  c #1C542C",
"v  c #185926",
"b  c #1A4933",
"n  c #075637",
"m  c #1C5D33",
"M  c #175736",
"N  c #064E34",
"B  c #224E21",
"V  c #245324",
"C  c #235C23",
"Z  c #235C2B",
"A  c #2A5C2B",
"S  c #275829",
"D  c #214A34",
"F  c #2C5C3C",
"G  c #245935",
"H  c #335D39",
"J  c #325E29",
"K  c #1B642B",
"L  c #176329",
"P  c #1D6334",
"I  c #1D6A34",
"U  c #1C6A3A",
"Y  c #18653A",
"T  c #126634",
"R  c #2B6325",
"E  c #23632D",
"W  c #2C632C",
"Q  c #246A2B",
"!  c #2C6B2C",
"~  c #256224",
"^  c #32682B",
"/  c #246433",
"(  c #2C6433",
")  c #246B33",
"_  c #2B6C33",
"`  c #236C3B",
"'  c #2C6D3A",
"]  c #27643B",
"[  c #326C32",
"{  c #336C3B",
"}  c #35643A",
"|  c #2C733C",
" . c #277238",
".. c #367438",
"X. c #38702F",
"o. c #2A631F",
"O. c #0A5C44",
"+. c #1E5A40",
"@. c #295C43",
"#. c #335949",
"$. c #345C51",
"%. c #0D6445",
"&. c #196846",
"*. c #1E7146",
"=. c #186B51",
"-. c #1D7259",
";. c #236D4B",
":. c #286845",
">. c #356C4C",
",. c #376947",
"<. c #247343",
"1. c #2A7343",
"2. c #24734C",
"3. c #2C754B",
"4. c #2C7A4B",
"5. c #287949",
"6. c #327344",
"7. c #3D744C",
"8. c #347B4C",
"9. c #387849",
"0. c #286B55",
"q. c #396B55",
"w. c #2C7453",
"e. c #2D7C5C",
"r. c #277757",
"t. c #337653",
"y. c #337B53",
"u. c #3B7B54",
"i. c #347C5B",
"p. c #397759",
"a. c #287A65",
"s. c #327C63",
"d. c #387B66",
"f. c #347D76",
"g. c #42794A",
"h. c #437B54",
"j. c #467759",
"k. c #426D53",
"l. c #487C67",
"z. c #527B6B",
"x. c #547D70",
"c. c #36834D",
"v. c #2C8259",
"b. c #33835C",
"n. c #3A8759",
"m. c #348D58",
"M. c #2C8468",
"N. c #3C8C63",
"B. c #3C8B6C",
"V. c #378569",
"C. c #3C926B",
"Z. c #2C8673",
"A. c #3B8B74",
"S. c #398775",
"D. c #3E9577",
"F. c #43824B",
"G. c #43865B",
"H. c #478759",
"J. c #508E5C",
"K. c #448363",
"L. c #438C63",
"P. c #4C8C65",
"I. c #47886A",
"U. c #548969",
"Y. c #42936B",
"T. c #499569",
"R. c #55956A",
"E. c #428572",
"W. c #468B76",
"Q. c #568A76",
"!. c #43947D",
"~. c #4B947B",
"^. c #489776",
"/. c #549374",
"(. c #539B7C",
"). c #58987A",
"_. c #63986D",
"`. c #65997A",
"'. c #638A77",
"]. c #5AA57B",
"[. c #53A274",
"{. c #63A47B",
"}. c #69AE75",
"|. c #3B9484",
" X c #3A9A85",
".X c #3E8A86",
"XX c #448B85",
"oX c #4A9C8C",
"OX c #479885",
"+X c #539C82",
"@X c #539B8A",
"#X c #589987",
"$X c #559D95",
"%X c #4B9D92",
"&X c #659885",
"*X c #719A89",
"=X c #6C8A84",
"-X c #4DA28C",
";X c #4CA384",
":X c #5BA384",
">X c #5BA38B",
",X c #57A888",
"<X c #54A394",
"1X c #5BA594",
"2X c #55AB93",
"3X c #5CAA94",
"4X c #5CA49A",
"5X c #5BAB9B",
"6X c #55AA9A",
"7X c #58B498",
"8X c #4FA990",
"9X c #63A584",
"0X c #65AC8B",
"qX c #68A689",
"wX c #75A589",
"eX c #67B388",
"rX c #63A594",
"tX c #63AA93",
"yX c #6AAC94",
"uX c #63AC9B",
"iX c #6CAC9B",
"pX c #67A597",
"aX c #79A897",
"sX c #6BB39C",
"dX c #66B497",
"fX c #72B49C",
"gX c #76B898",
"hX c #73BD8A",
"jX c #5CA9A2",
"kX c #59B8A2",
"lX c #67ACA4",
"zX c #74AEA4",
"xX c #67B6A6",
"cX c #73B3A3",
"vX c #7CBAAD",
"bX c #79B8A7",
"nX c #7BBBB2",
"mX c #78C39C",
"MX c #74C295",
"NX c #79C4A6",
"BX c #76C3AF",
"VX c #83BC94",
"CX c #83BBAC",
"ZX c #85B9A6",
"AX c #98BFBA",
"SX c #85C6A8",
"DX c #88C7B6",
"FX c #97C7B8",
"GX c #8ED5B0",
"HX c #9CD8AE",
"JX c #98D9C4",
"KX c #91CFC2",
"LX c #ABD3C7",
"PX c #9AE5C9",
"IX c #ACECD0",
"UX c #CDF3DF",
/* pixels */
"2X-X-X-X6XxXxXjX$XXXf.f.$XlXxXuXxX7X2X2X6XkXxX7X!.M.M.w.w.&.Y ;.+XgXgX3X7X7XkX8X8X5X4X@XS.f..X$XjXjXjX4X5X6X<X-X X X X%X",
"2X;X|.Z..X<XjX$X$XXXf.f.XX$X5X6X2X8X-XoX|. X%X-XV.;.0.w.N.^.T.I.4.y.i.s.;X7X7X8X%X5XlX@XZ.f.XXjXxXjX5X4X5X5X2X-XZ.Z. X X",
"-XOXM.a.S.5XxXjX$X@X$XrXrX1X1X6X6X6X7X6X|.S.XXOXa.n n ;.].mXNXeX5.x n *.D.7X7X8X#XpXpX4X<X$X5XuXjXuXuXuXtXuX-XD.a.Z. X|.",
"-XA.a.-.S.4XjXoX@X#XpXbXcXuX>X>X2XjXxXxXoXf.S.XX0.N N 0.eXHXIXSXv.r r U ^.7X8X,XyXpXpXzXnXBXcXrXoX#XrXpXtXdX>XXXa.Z.|. X",
"oXS.a.M.A.8X3X+X#X9XyXiX0X&X:X>X@X4XxXxX%Xf.a.f.0.=.+.w.0XHXIXGXc.r s U C.,X[.(.).&X=XrXiXsXrX#X&X).).#X9X0X>XOXa.Z.|.|.",
"|.|.;X;XOXB.B.I.E.I.I.K.d.V.I.E.~.-X4X2XXXa.a.f.E.W.E.K.9XNXGXMXm.s l <.C.[.^.I.z.l.j.l.E.I.E.l.l.q.>.j.qXaXqX~.W.OX%XoX",
"-X8XdXBX!.%.N l n x c j j j N M 0.V.A.d.s.r.0.a.rXBXNXyXmXmXGXMX| s s | c.T.(.G.b 7 < 6 b b j 7 3 1 1 F *XZXiXyXtX6XjX6X",
"6X2XkXNX^.n 3 r r 3 r r 3 3 3 j n ;.w.*.r.r.-.s.cXPXPXSXSXMXMXMX<.s v _ 9.c.P.7.< + X < 6 6 6 6 < .   D `.VXyXfXxXdXjX5X",
"5X6XOX2X[.*.*.5.` 1.,.>.7.>.>.t.v.U *.v.2.2.2.i.cXPXJXBXbXdXmXhX1.r / 6.} 7.q.q.#.8 #.$.k.k.k.k.D b 7 F x.`.Q.Q.#X+X!.!.",
"5XA.a.e.^.,X7XeX{.`.`.{.`.`.9XqXL.*. .U *.5.<.v.sXJXGXNXsXdXNXeX1.x { ,.c z c ,.x.=X=X=XaX*X*X=X'.=X'.j.,.F @.0.W.W.s.S.",
"oX=.N n D.PXIXPXSXgXgXgXZXZXSXZX^. .T l L I T <.0XGXDXbXsXsXNXdX3.c ,.,.3 o @ b ZXLXLXAXAXZXZXLXLXUXUXVXb + < +.E.B.S.A.",
"%X=.n n C.PXIXPXHXSXZXSXGXFXFXSX(.5.T L T I I <.{.DXNXcXsX7XNXdXU k H } k * @ b AXLXAXAXKXFXFXFXLXLXUXVX7 X + N K.E.S.A.",
"<XZ.a.M.A.2X5XtXgXgXZXCXZXZXCXcX:XB.b.c.<.L L U {.SXbXiX3X3XdX].m 6 k D F F M >.ZXAXzXCXCXDXFXaX'.'.*XU.D 7 6 @.l.S.S.W.",
",XoX-X6X!.-.0.a.+XbXKXDXCXbXvXCXcXtXyX].8.s r v R.SXgXyX0X3XsX+Xm 1 @ i 7.H.t.l.=XaXzXzXbXKXLXwXH 8 F ,.F F @.:.l.f.S.!.",
"dXdXxXMXD.%.n O.W.nXKXDXvXbXvXDXKXnXDXmXH.s 0 v R.VXgXiXrXtXbXdX@.1 o 3 g.U.j.E.zXzXlXzXBXPXIXqX7 + 3 b F F M +.w.d.f.W.",
"5X3XxX7XOX=.O.O.S.cXBXzXvXvXzXCXnXKXGXSXP.l j ] H.yX0X&X#X>XsX0XM @ + a u.R.d.E.$XlXlXlXsXDXJXqX2 @ * S F @.:.:.r.d.f.~.",
"3X>X,X8X^.M.M.C.OX@X$X4XiXcXbXCXlXuXNXcX/.t.u.G.K.P.U.I.Q.#XyX&XG   < 6 y.(.B.V.@X@X#X>X/.:XgXR.v y C G :.w.;.r.d.S.A.XX",
"tX,X,X,X,X,X;X7X~.V.d.E.#XfXbXNXbXlXfXsX:X/.).R.h.:.:.t.I./.qX&XD   @ j i.(.W.E.V.E.V.l.u.u.G.9.Z z Z 6.c.K.K.I.~.+XOXXX",
",X3X,X,XdXNXNXBXoXe.=.=.~.iXgXbXsX>XtX:X0XyXhXeXt.x x ] G.P.]./.S o @ 3 t.~.I.V.0.0.:.,.:.D G c W W A 7.U.R.).+X>X1X#X#X",
";X;X,X,X,X7XdXkX;Xa.O.&.V.].,X:X/.~.(.~.].eXdX}.8.l x 1.y.H.P.H.m = * r 3.I.I.i.q.>.,.>.,.H ] } } } } g.P.P./.>XrXtX$XrX",
",XD.C.D.C.C.D. XA.r.=.-.v.b.n.L.i.i.i.i./.].eX].4.l P ` 1.9.c.6.m i r x p.P./.p.>.@.#.#.H H #.} } H } H #.,.q./.iXiXpXqX",
"(.r.T %.%.%.=.=.=.=.=.=.&.n n Y &.m P &.T.eXMXeX4.l L K ) | | _ _ ) ) 1.G.T./.q.k 6 3 3 < 5 5 > 5 < 4 @ < 6 6 q.VXcXpXrX",
"!.%.n n O.O.O.n =.&.=.=.Y N l l m m x x L.}.MX}.c.s L L ) E E _ 6.c.9.8.G.L.U.p.6 . + < o       + X . + . X . @.zXaX*X&X",
"^.r.-.a.s.V.S.f.-.a.s.M.e.;.U | m c v v c.[.}.T.c.L I Q K v f Q 6.u.y.8.p.h.U.i.b < 7 b D D 8 7 D D 7 D +.< 6 >.*X*X&X=X",
"V.+XcXuXuXuX1X3X$XXX~.W.~.).^.T.6.v v K | H.| c.c.m.J.J.o.0 0 s 8.P.K.t.m G +.$.@.0.#.>.z.z.l.z.x.z.x.x.z.z.z.$.$.$.$.x.",
"s.DXIXJXJXDXvXbXzXzXlXpXyXsXyX{.H.E ) Q  . .L  .}.MXHXhXX.9 $ y h.{.).u.j 1 < N d.l.l.Q.pXZXzXCXaXZXZXZXFXLXAXx.7 . < $.",
"0.KXIXKXJXFXDXCXvXCXvXbXcXcXsX0XH.)  .I L L s K J.VXHXhX{ $ $ e g.&XwXl.j + < 6 d.Q.#XXXpXzXvXCXzXCXZXAXFXLXFXz.< X X k.",
"0.#XpXrXiXCXDXCXzXzXzXlXpXpXrX>XL.U I I K Q L Q F.}.}.}.W = O i ] P.U.p.@.j j M 0.E.~.I.E.E.x.W.Q.#X=XXXz.z.U.k.D 3 D z.",
"s.0.r.r.W.SXDXSXbXiXpXpX4X$XjXxX^.*.&.<.U  .I | ..F.F.[ S t - 2 c Z m G >.h.t.3.i.V.I.V.V.d.l.z.l.l.Q.j.b b D F k.k.j.'.",
"s.N j j t.SXGXZXgXiXrX1X4XjXxXBXoXr.=.2.5.| | ....[ ~ h f u t t e * O 2 h.R.R.n.V.b.b.V.E.I.Q.XXW.#XqXq.1 @ 3 H J.`.'.`.",
"S.M j j y.mXSXhXyXrX@X@X$X5XkXxX XM.a.v.*.5.c.c.! o.~ h f y t 0 - = ; y g.R.R.H.n.4.y.i.p.l.l.z.l.Q.).#.1 o 1 F j.U.H.R.",
"A.r.*.&.b.:X9X(.(.+X+X!.OX6X6X%X|.a.M.Z.v.<.c.| ! ~ R X.h w & & y f C ~ g.g.9.6.4.4.3.3.;.@.,.#.,.q.>.F c 3 e S g.] ] G.",
"D.Z.v.v.r.*.2.*.e.V.A.A.A.OX|.Z.f.Z.Z.Z.M.v.n.G.! y u h w q q 9 w o.X.........{ _ ' 6.G S k 7 4 7 k 4 k A c Z v / l x H.",
";XD.M.M.=.j l j M ;.b.M.M.Z.Z.a.a.Z.Z.C.M.v.L.H.Z & % , w w q q d o.X.....X.X.^ ( ( A V a 2 @ + O @ O 2 Z _ ' / x l l b.",
";X XM.B.r.n l n &.r.N.C.C.V.Z.V.S.A.W.A.v.t.7.,.B % : , , % 9 w h h ^ X.X.} ^ W A Z A S g a > ; O 2 2 d Z / | 1.x l M N.",
"OXS.M.B.s.*.*.<.4.e.n.N.N.b.v.M.e.s.w.>.:.:.] S p , 4 u , % & w g d u h h C S C V h S S V a 4 4 u C R Q W E ) ' M &.*.!.",
"<X1X,X>XoXY.N.N.v.*.T T &.U U T n x j j 7 k 4 4 g 4 , , 4 4 > > w , w , w w q : - - t i t - t p R ! X.! _ _ / U r.b.S.@X",
"1XuXdXuX>X^.T.C.5.T T l T T T n j 1 @ @ + # 5 # 4 4 4 5 5 4 5 : , , , , , , 5 % $ * & & ; - i C R ^ X..._ ) Y :.d.A.!.@X",
"#XrXtXtX,X!.Y.C.v.v.*.T  .5.*.U l 3 3 4 > 5 5 , , g J , 5 % # 5 , , w , g g w g u f i e = e i p h L Q E / P x ;.d.W.S.XX",
">XOXW.!.B.e.r.v.m.m.m.m.C.T.T.L.3.Y F G g 4 # 5 g g J g , % O , , , , w g h J J ( ' } / / / ] / v y i v ` 1.:.0.A.XXXXXX",
":XV.i.M.=.T l n *.,XMX;X7XmXmXMX].N.R._.} , % > d ^ X.X.w % : w : : : & g R X.g.J.J.J.J.n.H.R.t.x e r x G.P.i.W.jXlXjXlX",
"(.e.w.v.*.n N n v.8XdXeXeXmXNXMXeXT.}.].} 0 $ & d o.X.o.h q : q q 9 & 9 d ^ [ g.J.J.P.P.P.T.R.y.x = * m /./.d.).nXnXlXzX",
"(.5.2.b.v.r.%.&.v.[.7X,X,X:X,X,XL.5.n.c.E e 9 9 d h o.d d w w q q q 9 9 h X...F.g.F.u.h.u.n.N.3.k 1 1 @.K.l.0.E.lXlX$XlX",
"T.<.U 2.C.].[./.^.].,X+X(./.W./.b./ ` ' E f s d d d d d d o.h h q & 9 w o.X.[ 9...6.6.6.,.3.u.>.:.F q.,.] M M 0.).XXW.#X",
"T.Y r l n.NXGXmX0X9X:X)././././.u.G m ' ) Q Q ! R Q o.~ C R ^ R 9 & 9 d C W W ^ ..{ 6.,.] :.>.h.U.`.wXj.j 1 1 M l.d.q.l.",
"T.I r r n.gXGXgX0X{.).).)./.U.R.,.k z _ | ) _ | [ X.[ ! ! [ _ R d 9 0 u h J J } } ( } ( Z S ( ,.'.`.`.g.2 O 1 c p.p.s.E.",
"G.` T T 3.P./.K./.U.U.U.P.j.j.h.H 4 z c ) | | | ..........{ ' 6.A a p g B S J A S g V B V g p A k.g.g.G 2 * 2 G j.l.q.W.",
"n.U P P m c c G c b D S k a k k B % @ a ( c.F.9.g.g.g.g.9.9.h.F.{ S V S B B a a > 5 ; > t > $ 4 k 4 B 2 - - 2 G g.>.:.d.",
"1.P P ] c * o @ o o o o       o o O O * } U.J.H.h.g.k.g.u.H.J.J.g.#.H H V 2 ; O O O O O % & $ O O O O $ 2 2 t z 7.m c p.",
"8.1.1.6.G = * 2 2 4 4 4 > # # ; * * * 1 ,.U._.z.j.g.g.h.g.H.H.H.7.} ] ( z t - ; & & % , & w 0 0 & & & 0 e 0 e c ,.m x t.",
"c.c.8.c.` z y k p B V V B B k u p i i i H j.k.g.g.j.j.F.h.c.F.g.A V z z z f y y u g d d u y d f f p p u i e i k { m m u.",
"m.c.4.| ) E K E Z A } W A J J A C Z Z i i t 2 4 k.J.J.g.{ ' { / e - & e C R ~ A R o.o.o.A ~ ~ h E ( v z C Z v m ] x x y.",
"m.m.5. .U ` ) ' _ | [ _ ! ! [ ! W E _ ~ y $ o O { _._.h.{ E v s $ 9 9 9 E X.! ! Q o.X.! !  .Q Q / _ E m / ] / ] m j l t.",
"m.m.m.m.5. . .| | | | [ _ _ _ _ Q K W Q v y * = 6._._.J.6.W z y 0 0 9 d Q [ ! ! Q Q Q Q Q Q  .I I ' 1.) P m m Y :.x x i.",
"[.C.D.C.m.c.4.5.8.| |  . ._ Q ) Q L E E E v y 0 A 7.7.{ ( z i e s L s s Q Q Q Q Q Q L Q Q  .I  .<.3.4.y.y.w.w.t.w.;.;.I.",
"8X[.^.^.C.N.b.v.4.1.<.| | ) ) ` Q Q ) E v E v 3 = 2 * * = O $ = f K s s L Q L  .Q L L I  .5.v.v.b.b.V.B.].:X(.(.(.~.+XtX",
"8X[.8X X^.N.e.b.e.t.3.3.1.` ` )  . .I K _ 6./ k = * O * * O * 3 v ` K L I I I I I T I U *.v.v.m.C.M.N.;XdXtX3XuXtXtXuX1X",
"8X;X8X8XoXA.s.e.B.N.N.N.i.3.;.<.U I I I | 9.>.] c z k k k k r 3 ' 8.1.`  .<.<.<.5.5.*.5.v.M.M.M.A.Z.A.+X6X1X,X1X1X1X4X4X",
"%X%X8X7X6XOXXXOX+X+X+X+X(.T.I.L.N.N.n.n.T.T.R.P.h.j.j.H.j.7.7.,.h.^.Y.n.N.m.N.L.Y.Y.C.C.C.^. X XOXOXOX-X<X6X<X<X$X4X4X$X",
"%X%X%X7X5X5X3X7X1XtXtX0XtX0X0X0X}.].].eX].{.{.{.qX{.wXwXwXwXwXwXqXhXeX,XeX].eX,X].:X,X2X7X7X7X7X6X6X6X8X6X6X4X8X<X$X4X$X"
};
