/* XPM */
static char *dc83ece9e15e4a559b2ce6e5957693e7tFrCI0Dd88xBSn2O[] = {
/* columns rows colors chars-per-pixel */
"17 19 167 2 ",
"   c #001B00",
".  c #002B07",
"X  c #013400",
"o  c #053A04",
"O  c #083B02",
"+  c #033E0D",
"@  c #083F08",
"#  c #013D19",
"$  c #04450F",
"%  c #0F450D",
"&  c #17490E",
"*  c #004517",
"=  c #074810",
"-  c #0F4B14",
";  c #07421D",
":  c #134C13",
">  c #1C4F13",
",  c #134D1A",
"<  c #184E1A",
"1  c #165016",
"2  c #1E5015",
"3  c #17521C",
"4  c #1C551C",
"5  c #23561C",
"6  c #215B1E",
"7  c #28581C",
"8  c #0D4721",
"9  c #0A4C22",
"0  c #145523",
"q  c #1C5421",
"w  c #1B5925",
"e  c #135128",
"r  c #1B552A",
"t  c #145B2F",
"y  c #1C5C2C",
"u  c #155C36",
"i  c #1F5933",
"p  c #165E39",
"a  c #1E5E39",
"s  c #245B22",
"d  c #2B5F21",
"f  c #245C29",
"g  c #235F3B",
"h  c #1E6233",
"j  c #1E6837",
"k  c #1A623C",
"l  c #24612C",
"z  c #29612A",
"x  c #316527",
"c  c #366829",
"v  c #3B6B2F",
"b  c #246333",
"n  c #2A6634",
"m  c #2C6A36",
"M  c #23663B",
"N  c #2C663E",
"B  c #21683C",
"V  c #2D6B3B",
"C  c #306934",
"Z  c #3C6E34",
"A  c #336D3C",
"S  c #2F723F",
"D  c #35723E",
"F  c #44793E",
"G  c #487A3F",
"H  c #266A41",
"J  c #2A6E43",
"K  c #346E45",
"L  c #2E7246",
"P  c #2B734D",
"I  c #347443",
"U  c #3B7545",
"Y  c #3F7843",
"T  c #347549",
"R  c #3C754A",
"E  c #33794D",
"W  c #3B7D4D",
"Q  c #2D7456",
"!  c #3E7754",
"~  c #337B54",
"^  c #3A7E51",
"/  c #377D66",
"(  c #367B68",
")  c #417640",
"_  c #407B43",
"`  c #4D7D41",
"'  c #417D4D",
"]  c #427E58",
"[  c #3B8255",
"{  c #3D855B",
"}  c #3E846A",
"|  c #43824D",
" . c #4B834A",
".. c #4F894F",
"X. c #558345",
"o. c #508149",
"O. c #438453",
"+. c #4B8353",
"@. c #4E8856",
"#. c #45835C",
"$. c #49825C",
"%. c #4C8B5E",
"&. c #4E925F",
"*. c #5F965D",
"=. c #60935A",
"-. c #448C64",
";. c #4B8A64",
":. c #468E6C",
">. c #518E65",
",. c #528E6A",
"<. c #4C9264",
"1. c #46926C",
"2. c #4C936A",
"3. c #529463",
"4. c #5C9964",
"5. c #54956A",
"6. c #559A6E",
"7. c #448974",
"8. c #478B7C",
"9. c #4D9377",
"0. c #4E9C75",
"q. c #4E947C",
"w. c #549472",
"e. c #5C9D71",
"r. c #559C7B",
"t. c #5F9F7D",
"y. c #639E66",
"u. c #619D6A",
"i. c #649E76",
"p. c #609C78",
"a. c #5DA06E",
"s. c #5FA272",
"d. c #55A17D",
"f. c #5CA47C",
"g. c #60A370",
"h. c #64A875",
"j. c #61A37D",
"k. c #68A27C",
"l. c #6AAB7D",
"z. c #79B57F",
"x. c #569C82",
"c. c #559A88",
"v. c #5AA783",
"b. c #6BA783",
"n. c #63AB83",
"m. c #6EAA84",
"M. c #63A98F",
"N. c #67B085",
"B. c #6EB686",
"V. c #6AB189",
"C. c #71B482",
"Z. c #72B38A",
"A. c #79B58A",
"S. c #7ABC8E",
"D. c #6CB19F",
"F. c #7EBB92",
"G. c #71B898",
"H. c #7BC18F",
"J. c #7CC496",
"K. c #78C09A",
"L. c #7FC6A6",
"P. c #80C08C",
"I. c #80C694",
"U. c #8BC7A1",
"Y. c #81C9A4",
"T. c #97D0AD",
"R. c #89CFB5",
/* pixels */
"8.D.7.M.r.f.n.j <.<.&.l.3.e.g.A.t.",
"c.( x.9.r.:.E <.H.[ [ 3.m.;.N b.-.",
"q.( } :.P h [ B.H.&.b L K >.g e.w.",
"/ R.q.G.K.{ * S.C.D 0 &.A.b.T.# #.",
"x.Q r.Y.V.Z.j h.C.U K ] F.U.  g a ",
"Y.r.f.~ 6.s.3.m O.s ' @.>.# ] ,.j.",
"p k P M E V H.w m l g N r 8 # . 3.",
"f.n.f.<.s.w l C.D n ' f ] p.] ] M ",
"2.N.J.l.a.S - y.q C A ) R A.i.] T ",
"[ 1.a.l.4.|  .1 % % d ] +.i K e [ ",
"-.{ L I n D @.% 4 s F q A q + R L ",
"f.{ W j w 4 X 5 O > X s o + n g 2.",
"~ P a.l.e.Y 2 ` & > 5 Z *.4., %.[ ",
"-.-.6.B.@.f Z 2 v 7 > x ) z _ $ 5.",
"u u 9 i 3 < X.` X.Z c X 1 4 1 = V ",
"~ ~ H 9 l w & =.G d 5  .z 4 4 3 u ",
"d.1.P [ h b w w - l 3 m m I ^ ;.-.",
"v.0.{ -.[ [ [ m w Y S @.#.%.,.f.n.",
"v.0.1.2.s.a.a.D D *.&.l.a.5.6.j.f."
};
