/* XPM */
static char *_44c1189bdc8417faedea6c0c42b3a12Qk0L2LgV9tcyJlLg[] = {
/* columns rows colors chars-per-pixel */
"60 60 252 2 ",
"   c #010201",
".  c #0C0501",
"X  c #070C09",
"o  c #140500",
"O  c #1A0600",
"+  c #160A01",
"@  c #1C0B00",
"#  c #07170A",
"$  c #1C1301",
"%  c #181604",
"&  c #0B1B14",
"*  c #121815",
"=  c #121B15",
"-  c #260E00",
";  c #241702",
":  c #2C1402",
">  c #351601",
",  c #361B03",
"<  c #3B1B02",
"1  c #012503",
"2  c #002B02",
"3  c #012D0C",
"4  c #092A0A",
"5  c #073708",
"6  c #103B0C",
"7  c #092818",
"8  c #162618",
"9  c #073814",
"0  c #163818",
"q  c #332B11",
"w  c #182723",
"e  c #0B3824",
"r  c #12362C",
"t  c #183828",
"y  c #222A27",
"u  c #253829",
"i  c #353226",
"p  c #273D33",
"a  c #421D02",
"s  c #462406",
"d  c #542301",
"f  c #592B05",
"g  c #4D340C",
"h  c #672E01",
"j  c #693609",
"k  c #753603",
"l  c #423924",
"z  c #0A4A10",
"x  c #074618",
"c  c #164818",
"v  c #195218",
"b  c #20491D",
"n  c #20501E",
"m  c #20611E",
"M  c #074828",
"N  c #164925",
"B  c #07532B",
"V  c #185528",
"C  c #044E33",
"Z  c #1B4A35",
"A  c #065636",
"S  c #195836",
"D  c #254928",
"F  c #255727",
"G  c #235B2B",
"H  c #264737",
"J  c #354939",
"K  c #275836",
"L  c #1D642A",
"P  c #1D6934",
"I  c #106538",
"U  c #1A6638",
"Y  c #286629",
"T  c #2C632D",
"R  c #246B2C",
"E  c #246334",
"W  c #246C33",
"Q  c #2B6B33",
"!  c #286639",
"~  c #246C3A",
"^  c #336838",
"/  c #2E7132",
"(  c #277239",
")  c #5D4F0D",
"_  c #6A4E0A",
"`  c #7A450B",
"'  c #504E36",
"]  c #70562C",
"[  c #786720",
"{  c #2C4C42",
"}  c #354A43",
"|  c #285A45",
" . c #375848",
".. c #355C52",
"X. c #1A6946",
"o. c #1C6F50",
"O. c #266947",
"+. c #386948",
"@. c #257444",
"#. c #2B7443",
"$. c #2D734C",
"%. c #28784A",
"&. c #35754A",
"*. c #296B55",
"=. c #366953",
"-. c #297956",
";. c #387657",
":. c #337A54",
">. c #347D5B",
",. c #297B65",
"<. c #387A65",
"1. c #347A72",
"2. c #475347",
"3. c #50684F",
"4. c #456858",
"5. c #457857",
"6. c #4B6B63",
"7. c #497766",
"8. c #577B67",
"9. c #547E73",
"0. c #6C786F",
"q. c #823901",
"w. c #8B3E01",
"e. c #89470B",
"r. c #924202",
"t. c #974A08",
"y. c #95500E",
"u. c #914E10",
"i. c #955215",
"p. c #A54C03",
"a. c #AA4D02",
"s. c #A95409",
"d. c #B55303",
"f. c #BA5503",
"g. c #BA5805",
"h. c #AA5C12",
"j. c #B15E12",
"k. c #977A03",
"l. c #BA6D03",
"z. c #B76516",
"x. c #BF6816",
"c. c #976C22",
"v. c #C45A03",
"b. c #CC5E03",
"n. c #D15F03",
"m. c #CB6207",
"M. c #D26103",
"N. c #D56A03",
"B. c #D66609",
"V. c #D5690A",
"C. c #DA6C0C",
"Z. c #D97705",
"A. c #C26815",
"S. c #D16F15",
"D. c #DE7211",
"F. c #DA771A",
"G. c #E17514",
"H. c #E37A16",
"J. c #E67E1C",
"K. c #E87F1C",
"L. c #9E7855",
"P. c #2C8458",
"I. c #358854",
"U. c #36875A",
"Y. c #2C8568",
"T. c #388667",
"R. c #3B8B6D",
"E. c #3E9469",
"W. c #298671",
"Q. c #398875",
"!. c #3B8C74",
"~. c #3E9478",
"^. c #44865D",
"/. c #51835D",
"(. c #478868",
"). c #53886A",
"_. c #42936C",
"`. c #489469",
"'. c #52916B",
"]. c #458875",
"[. c #568C75",
"{. c #43937C",
"}. c #489878",
"|. c #55997A",
" X c #65897A",
".X c #68977B",
"XX c #4CA27E",
"oX c #57A47E",
"OX c #63A67E",
"+X c #9E8003",
"@X c #B79204",
"#X c #CB9405",
"$X c #E6920D",
"%X c #E6851B",
"&X c #E9801D",
"*X c #C6A205",
"=X c #D8B005",
"-X c #EAAC07",
";X c #EAB907",
":X c #EEC106",
">X c #F1C506",
",X c #F7C907",
"<X c #DB9147",
"1X c #EEB072",
"2X c #3E8D86",
"3X c #3A9784",
"4X c #468B87",
"5X c #499986",
"6X c #4E978B",
"7X c #569987",
"8X c #539C95",
"9X c #668D83",
"0X c #748F84",
"qX c #659A87",
"wX c #4AA385",
"eX c #4DA28C",
"rX c #57A887",
"tX c #5AA38D",
"yX c #5FB08C",
"uX c #4BA893",
"iX c #55A294",
"pX c #5BA594",
"aX c #58A897",
"sX c #5CAA94",
"dX c #56A399",
"fX c #5BAB9B",
"gX c #57B499",
"hX c #65A787",
"jX c #73A687",
"kX c #66B58C",
"lX c #66A797",
"zX c #63AC94",
"xX c #77A899",
"cX c #66B499",
"vX c #73B799",
"bX c #5CA7A2",
"nX c #5EB8A5",
"mX c #69ACA7",
"MX c #65B7A5",
"NX c #77B0A7",
"BX c #6BC09A",
"VX c #79C59B",
"CX c #77C4A6",
"ZX c #75C3AC",
"AX c #9E9A97",
"SX c #88B5A7",
"DX c #8CD1AE",
"FX c #8ED6AD",
"GX c #AACCC8",
"HX c #95E3C2",
"JX c #ADEACB",
"KX c #F2E9E2",
/* pixels */
"uXrX6XuXdXnXmXbX8X4X1.1.4XmXMXbXMXMXaXuXdXbXnXgX{.,.T.-.%.X.X.O.oXvXvXrXgXgXgXuXuXlXdX6X2X1.2X6XbXbXbXbXfXfXeXeX3X3XuXuX",
"aX5X~.W.~.8XbXdX8X4X1.9.1.1.Q.9.Q.<.<.1.,.1.2X5XR.*.*.*.E.`.`._.:.:.>.<.wXgXgXuXeXzXmX8XQ.1.2X4X4X8XpXdXfXfXuXeXW.W.3X3X",
"eX~.W.,.!.fXmXbX8X7X7X7X..w w w w w w w w 7 | 4X-.A A O.oXSXVXkX%.B I @.XXgXgXuX8XlXlXlX8XdX9Xr w ].lXfXfXcXiX~.,.W.3X3X",
"eX~.,.,.!.fXbX6X7X8XlXqX}                   p Q.*.A A *.OXHXHXDXP.x x I }.gXrXwXlXlXlXxXZXZX9XX   6.lXlXzXzXtX{.,.W.3X3X",
"5XQ.Y.Y.~.rXpX7X7X7XqX X' , , , , , , , , : J =.*.X.X.$.OXFXJXFXI.z B ( `.yXXX}..X.X7XqXqXqX0., > 3.).[.hXhXtX}.,.W.2X3X",
"3X5X5XeX3X!.R._.(.=.p ' c.j.j.h.j.h.j.h.a.t.j u p <.7.(.OXFXFXkXI.B B ( E.`.}.(.(.7.7.7.} p ] t.w.l t } qXvXhX5X{.5XuX5X",
"eXiXMXMX{.X.B B N 7   q z.&X&X&X&X&X&XH.V.n.q.O * 9.vXjXVXVXFXVX( z V #.I.^.|.(.Z e 7 e #   h b.M.a   y .XDXxXzXsXsXfXdX",
"aXaXMXBX}.A 9 M N 0 > f A.&XJ.J.&X&XJ.D.C.B.r.< q 9XDXVXFXVXVXkX@.v V / / I.).&.7 # # e X   h b.n.d : i  XxXjXxXmXcXMXdX",
"aXiX5XrX}.o.K H J ] y.z.F.J.&X&XK.J.J.J.G.F.v.t.w.] 6.0XxXvXCXkX#.x ! +.Q &.&.=.{ p } } *   h b.n.a.w.u.' } 7.|.8X7X{.{.",
"fX~.-.Y._.rX;.* ; u.J.H.J.J.J.J.J.J.J.K.K.J.D.M.j.j X ..qXcXVXkX$.V ^ &.V N V  .9X0X9X Xw   h n.M.n.n.f.@ X p =.].!.Y.T.",
"6Xo.A C ~.HXqXX $ e.K.J.J.&XJ.J.J.K.K.J.K.J.D.B.v.d   } hXcXZXcX&.N +.+.x 1 3 Z xXGXGXSXy   h b.n.n.M.v.o   = A (.T.Q.].",
"uXo.A A Q.HX9XX $ u.&XJ.J.J.&XJ.&XJ.J.J.K.K.H.G.S.f   } 7XcXZXkXO.N T K c 4 3 Z SXJXGXSXy   h b.n.n.n.f.O   7 Z <.].Q.].",
"dX1.,.Y.!.rX;.  $ u.&XJ.J.&XJ.&XJ.&XJ.J.J.K.J.K.S.f   } 7XpXzXrXS 9 N K K ! S =.SXGXNXxXw   h b.n.M.M.f.o   w O.R.].(.{.",
"uX5XwXgX~.-.{ % > y.&XJ.J.J.J.&XJ.J.&XJ.J.K.J.K.F.j o ' qXlXcX7XO.3 3 N +./.:.7.9XNXmXmXy o k n.M.M.M.f.- o p *.<.<.].{.",
"cXcXMXcX<.r i ` u.x.J.J.&XJ.&XJ.&XJ.J.J.J.J.J.J.F.s.k ] 3.4.qXzX| 3 1 6 5.'.;.].mX9.6.6.` k p.M.M.C.G.B.q.k ) r H *.1.].",
"fXaXcXsX{ X g S.F.H.J.J.J.J.J.J.J.J.J.&XK.J.J.J.J.S.b.p.q * =.qXS 3 1 c 5.`.<.4X9Xp * a s.v.b.M.M.G.K.G.b.b.w.X # *.1.5X",
"pXhX7X7XH . f F.&XK.&X&X&X&X&X&XJ.K.K.K.K.K.K.J.J.D.M.a.>   ..7XK # 3 9 >.}.T.R.4Xu   > g.n.M.M.N.G.K.H.B.B.w.    ..!.{.",
"lX7X9.8.] ` i.J.H.&XK.&X&X&X<X1X1XL.y.s.S.K.J.K.J.C.B.a.>    . XD 1 3 M >.|._.!.<.w   > d.M.B.C.C.$X$X$XN.M.w.    <.4X5X",
"tX4.w l x.F.F.J.&X&X&X%X&X&X1XKXKXL.; f x.K.K.K.J.C.M.a.,   J (.S 2 3 x :.|.!.<.*.7   < d.M.C.H.K.-X;X-XN.M.w..   7.6X6X",
"}...  : A.&X&XJ.J.&X&X&X&X&X1XKXKX0.  s z.K.J.K.J.C.M.p.,   H 5.V 9 3 x O.`.(.>.=.8   > g.M.C.H.K.-X,X;XN.M.w.    ].7X8X",
"wX|   : x.J.J.J.&X&X%XJ.J.J.<XAX0X2.  s z.K.H.G.G.V.M.f.k d l D 0 x x V :.`.'.;.O.*   > g.n.Z.$X$X-X,X;XB.M.w.  X 9.lX8X",
"}.H   : x.&X&XJ.H.&XJ.J.J.%Xi.y w *   a z.K.F.B.M.M.M.b.f.f.k $ X N ~ O.^.'.'.;.N X   > f.n.$X;X;X,X,X;XB.M.r.    [.xXqX",
"!.r   : x.&X&XJ.J.J.J.J.J.F.u.+       q z.K.G.n.M.M.M.M.M.N.q.@   K &.&.^.(.].=.e X   , g.M.$X:X>X,X,X;XC.M.w..   9.qXqX",
"}.H   : x.&XJ.J.&XJ.J.J.&XJ.u.+       s z.K.G.n.M.M.M.M.M.M.q.@   K :.&.&.>.).;.N 7 w l e.p.Z.:X>X*X@X#Xs.p.` p ..9X9X9X",
"<...  : A.&XK.K.J.J.J.J.&XJ.u.+       < z.K.D.M.M.M.M.n.M.M.k $ X | 5.$.S S S *.| *. ...q - k.;X>X_ , ; ; ; ' =.=.....9.",
"*.6.  : x.&X&XK.J.J.J.K.&XF.u.+       s z.K.D.B.M.n.M.M.M.M.q.@   =.|.5.M 7 7 M <.7.(.7.w   [ :X:Xg .       0.[.e # 7 ..",
"*.9X} ' z.A.S.F.H.J.&XJ.&XJ.h.s < , < j A.G.C.M.M.M.n.M.M.M.r.a , 3..X).M # 3 e <.[.7X].=   _ ;X;Xs   X p J 0X9.7 X # =.",
"*.7XqX[.2.< k B.C.D.J.J.J.J.F.x.x.A.A.A.B.B.N.M.M.M.M.M.n.n.v.f.s.j u  .| Z M A -.].5X<.=   _ %X$X<   t 6.4.8...Z e Z 7.",
",.*.;.*.J . d b.B.D.&X&XJ.&XK.K.J.J.J.G.B.M.M.M.M.M.M.M.M.M.M.n.v.s . y +.;.&.$.<.T._.<.=   k J.J.a   u { Z Z K 4.5.5.[.",
"<.C C M p X s g.b.V.F.F.J.J.H.K.J.J.J.G.B.M.M.M.M.n.M.M.M.n.M.M.b.d o y 4.).'.(.T.-.>.;.= . e.F.J.a   y e 3 0 K /..X.X.X",
"T.A C M $.[.3.: - : , f g.B.B.B.B.N.B.B.M.M.M.M.M.M.M.M.n.M.M.M.b.d.a.r.q 8 +.^.P.t & q c.j.S.&XJ.<   y 9 1 9 K /.).(.'.",
"R.,.X.X.U.|.4.X       > a.M.M.M.M.M.M.M.n.M.M.M.M.n.M.M.M.M.M.n.M.M.M.p.:   H #.#.8   a A.J.&X&X&X<   w D x N V &.! ! (.",
"~.R.P.-.-.X.S * & * = l p.M.n.b.b.b.b.b.n.n.M.M.M.b.b.b.M.M.M.M.M.n.M.a.:   D ^ Q 8 o d S.&XJ.F.F.g & u K F G V E V B U.",
"wX~.Y.Y.X.B M S | =.;.3.' d d d d d d k f.n.M.M.b.w.d k f.M.M.M.M.M.M.a.:   & 8 0 k r.s.F.&Xj.j j q 0 D F T Q ! V B B T.",
"wX~.W.Y.-.C B A X.-.R.T.p . .     . . < a.M.n.M.v.d . a a.M.M.M.M.M.M.a.:       . r.M.B.J.&Xu.+ . 4 c v G Q ( #.B B S T.",
"5X~.Y.R.U.o.o.@.%.-.U.>.t             > p.n.n.M.v.d . a a.M.n.M.M.M.M.d.:         r.b.B.H.%Xy..   b m Y T Y ! ~ U X.*.~.",
"iXiXtXeX7X_.R.T.P.@.P I ! S t X % ) k.@X#X=Xl.` k q.u.h.S.D.V.M.M.M.M.v.r.w.d o . w.n.B.J.K.i..   b / / / W P U -.,.Q.5X",
"iXcXcXzXrX}._.E.P.P B B A U N # $ k.:X>X;X:X+X; @ u.%X&XJ.J.D.N.n.M.M.M.M.M.q.+   w.n.B.H.K.y..   b / / / W U X.T.!.2XuX",
"8XpXpXzXrX}.E.E.P.@.X.I @.@.Z # ; k.>X>X>X>Xk.% + y.%X%X&X&XG.B.M.M.M.M.M.M.q.@   r.n.B.K.K.y.o   c Y R L U S X.<.!.Q.2X",
"tX|.}.{.R.-.-.P.P.P.U.U.E._.+.* ; k.>X>X>X>X*X[ _ e.` e.e.e.s.b.M.M.n.M.M.M.q.+   r.n.b.i.e.) 0 4 x z V ! #.O.*.!.4X4X4X",
"rXT.>.Y.o.I B A P.XXkXoXyXBX).= % +X>X>X>X>X>X,X;X)         h v.M.M.M.M.n.M.q.+   r.M.a.@    .&.B x x V ^.(.;.4XmXmXbXbX",
"|.-.-.P.o.A B A P.yXBXkXBXBX).= % +X>X>X>X>X>X>X=X_         h f.M.M.n.M.M.M.q.+   r.n.d.-    .&.V 9 5 S '.|.<.[.NXNXmXmX",
"|.%.%.T.P.o.I X.P.XXyXrX7X[.8.6.3.c.@X*X:X:X>X>X;X+X_ ) f d r.b.M.M.M.M.M.M.q.@   k t.i.2. .5.$.N 3 9 K 7.7.=.].NXmXbXbX",
"`.@.I %.E.oXoX}.~.wXyX}.H X Z '.>.9   g *X>X>X>X>X>X>X-XZ.M.n.M.M.M.M.M.M.M.q.+       i +.&.>.$.| | =.&.O.K Z *.9X7X].6X",
"`.P x B U.VXFXVXhXtXoX[.p   p [.&.8   g *X>X>X>X>X>X>X-XZ.M.M.M.M.n.M.M.n.M.q.+       y ^ ^ &.;.)..XjX5.N 3 e S <.<.=.].",
"`.P x B :.VXDXvXhXOX|.[.4.u  .).+.8   q +X*X=X:X>X>X>X-XZ.n.M.M.M.M.M.b.d.a.h o   # 8 J K G T &.)..XjX3.9 3 3 N ;.<.*.].",
"^.P I L $.`.'.(.[.).(.).).^.2.u = X   . % ; [ :X>X>X>X-XZ.n.M.M.M.M.M.d.a O o     0 F F F c c K +.5.5.G 9 9 9 G (.7.<.].",
"I.P P U S V S K D V D K N N 0 X             _ =X>X>X>X-XZ.n.M.M.M.n.M.a.:         4 5 6 c c 5 6 N c c 9 x 5 9 E &.&.O.<.",
"#.W E ! V 5 1 2 1 1 1 1 1 # #           X # _ *X=X=X=X#Xl.f.v.b.M.v.f.r.-       o # 2 2 5 5 4 4 2 2 2 5 6 6 x N &.G S >.",
"&.#./ &.K 9 2 9 6 6 0 0 6 4 4 4 3 5 3 4 K 8.3.q $ ; + % O O k v.b.f O o     4 4 6 6 6 6 6 z z 6 5 6 6 6 z 6 c V &.G V $.",
"I.&.I.I.! V c V b D F D n D b b c N c c ^ 5.K =             h v.b.s .       8 c n n v m v v v v n n v c c c c v O.S S :.",
"I.I.( ( ~ L G T F T ^ T T T T F G G G V c c t 8 = X   X = 8 j m.b.f % #   . 0 F m m m m m m m m Y T F n V G V V ~ V V :.",
"I.I.P.( ~ ( ~ Q / / / / T T / T Y Y Q G c 2 4 0 2.D   u  .+.[ A.b.) b N &   u Y R R R / / / R R E ^ Y S E E K E E B M :.",
"E.I.I.I.#.( #.( &.( / ^ / / / / Q V Y Y F z 5 5 ^ D X u ^ ! [ x.b.) z v 4   b Y R R m R R R R P P ~ #.~ W U S U U A S >.",
"E.E.E.E.I.:.%.%.&.( ( ( / W R W L L L Y Y V z z F u # D ^ D ] j.f.) n F 8 # b Y R R m R R R P ( @.$.$.:.:.:.$.:.-.O.*.(.",
"wXwX}.}.E.E.U.I.:.#.#.( ~ W P ~ W L W R V Y N x 9 0 6 0 u u i f h D D H G G L R L m I P ( %.P.P.U.U.T.E.oXrX|.|.|.|.7XlX",
"gXwXwXwX}.T.-.P.:.:.:.%.O.~ U ~ ( ( P P Q #.! c 9 3 2 0 #             w ! P L P P P U @.%.P.P.P.R.Y.R.wXfXkXzXzXzXzXzXpX",
"uXwXuXuX5XQ.Y.<.T.R.T.T.U.$.@.@.P P P P / &.&.E V N V D 8 .     X X X u ( %.@.@.%.@.%.%.P.P.Y.Y.!.W.!.5XaXaXaXpXaXpXpXdX",
"6X6XuXfXdX5X{.5X5X|.oXrX}.`.(.E.I.E.U.U.`.`.'.`.^.5.5.5.^ u u t H H K O.U.U.U.E.E.E.E.~.~.}.3X}.5X5X5XeXdXaXiXiX8X8X8XdX",
"iXiXaXfXlXdXaXcXsXzXsXzXzXyXzXkXkXOXoXkXOXOXOXOXOXjXjXjXjXjXOXjXhXkXhXyXyXoXyXyXrXrXrXrXyXgXgXgXgXfXfXaXdXdXdXdXdXbX8XdX"
};
