/* XPM */
static char *_c431df05f864ae7cad566e02e5a4de1NEfnGjdOzRNFYymq[] = {
/* columns rows colors chars-per-pixel */
"60 60 140 2 ",
"   c None",
".  c #030201",
"X  c #0F0701",
"o  c #0D0A00",
"O  c #070708",
"+  c #06090B",
"@  c #0B0B0C",
"#  c #160A01",
"$  c #190D03",
"%  c #130E0A",
"&  c #1E1502",
"*  c #141009",
"=  c #1A150F",
"-  c #0E0F10",
";  c #1D1610",
":  c #1C1816",
">  c #251101",
",  c #2B1302",
"<  c #2E1906",
"1  c #321702",
"2  c #351A05",
"3  c #3B1C05",
"4  c #3A1F09",
"5  c #322802",
"6  c #3B210B",
"7  c #3F2908",
"8  c #292511",
"9  c #3E2719",
"0  c #3A281A",
"q  c #191D20",
"w  c #421E03",
"e  c #472103",
"r  c #4E2403",
"t  c #47220A",
"y  c #4A280C",
"u  c #502504",
"i  c #5D2C06",
"p  c #512A0B",
"a  c #592D0B",
"s  c #433605",
"d  c #4D3F05",
"f  c #593404",
"g  c #5D330E",
"h  c #472A10",
"j  c #4A2D18",
"k  c #4B301B",
"l  c #5D3617",
"z  c #53371E",
"x  c #59351A",
"c  c #57381E",
"v  c #652F07",
"b  c #693005",
"n  c #60340F",
"m  c #723507",
"M  c #70370B",
"N  c #74390C",
"B  c #7A3F10",
"V  c #503925",
"C  c #644D07",
"Z  c #745F08",
"A  c #774010",
"S  c #7A4212",
"D  c #705E15",
"F  c #7E6707",
"G  c #8E4207",
"H  c #8F4308",
"J  c #924407",
"K  c #994707",
"L  c #9E4A09",
"P  c #985F08",
"I  c #814311",
"U  c #874C13",
"Y  c #8C4C14",
"T  c #914E14",
"R  c #9E5617",
"E  c #90511A",
"W  c #A14B09",
"Q  c #AA4F08",
"!  c #AF5109",
"~  c #A15F0B",
"^  c #B5540A",
"/  c #BB5609",
"(  c #BD590C",
")  c #AE5615",
"_  c #A45917",
"`  c #AD5D17",
"'  c #AD5F19",
"]  c #B35910",
"[  c #826909",
"{  c #9B7E09",
"}  c #A27509",
"|  c #A16812",
" . c #AD601C",
".. c #BC6115",
"X. c #B7641B",
"o. c #BB6519",
"O. c #995920",
"+. c #C35B0B",
"@. c #CC5E0A",
"#. c #D15F0A",
"$. c #CD610C",
"%. c #C76B0B",
"&. c #D2610B",
"*. c #C5750B",
"=. c #CA6D1C",
"-. c #D46711",
";. c #D76A12",
":. c #DA6D15",
">. c #D96C1C",
",. c #CE701D",
"<. c #DD7016",
"1. c #D4731E",
"2. c #D8761F",
"3. c #E17519",
"4. c #E57B1F",
"5. c #DA7720",
"6. c #DD7820",
"7. c #E57D21",
"8. c #E87F22",
"9. c #AA890A",
"0. c #B6940B",
"q. c #DC830C",
"w. c #C9960C",
"e. c #E18017",
"r. c #E69410",
"t. c #E89319",
"y. c #CDA70C",
"u. c #D9AE0D",
"i. c #DAB10D",
"p. c #EAA70E",
"a. c #EEAB0E",
"s. c #E4B90E",
"d. c #F0BA10",
"f. c #EA8022",
"g. c #F3C60F",
"h. c #F7CA0F",
"j. c #B38C6A",
"k. c #EFA159",
"l. c #E7A96F",
"z. c #7F8284",
/* pixels */
"                                                                                                                        ",
"                                                                                                                        ",
"                                                                                                                        ",
"                                                                                                                        ",
"                                                                                                                        ",
"                                                                                                                        ",
"                                                                                                                        ",
"                                                                                                                        ",
"                                                                                                                        ",
"                                                                                                                        ",
"                                                                                                                        ",
"                                                                                                                        ",
"                                                                                                                        ",
"                                                                                                                        ",
"                                                                                                                        ",
"                                        . . .                   +                                                       ",
"                                      z n g a t                 p                                                       ",
"                                      g 7.7.<.v               3 H >                                                     ",
"                                    c X.7.7.4.] l             2 ^ S                                                     ",
"                                    y 7.7.7.7.<.i             2 @.K *                                                   ",
"                                    y 6.7.7.7.7.n             2 @.J %                                                   ",
"                                    U 7.7.7.7.7.T j           m $.^ a                                                   ",
"                                  h 6.7.7.7.7.8.:.r         , +.;.3.J .                                                 ",
"                                V  .7.4.k.j._ 8.:.r         , +.4.r.J .                                                 ",
"                                6 5.8.4.l.z.B 8.;.i         , +.t.p.G .                                                 ",
"                                6 2.7.8.O.- S <.@.+.w       , %.d.a.J .                                                 ",
"                                6 2.7.f.T . S :.#.@.w       j P u.} B                                                   ",
"                                6 2.7.f.Y . S 3.#.@.e         s 9.o @                                                   ",
"                                  I :.f.=.R ..&.$.&.W j       7 | *                                                     ",
"                                  4 ( 1.7.8.:.#.#.&.@.p       p R =                                                     ",
"                                    # i -.&.&.#.&.&.@.^ 4   < =. .;                                                     ",
"                                    q c G G ^ &.Q / &.+.2   M ,.E                                                       ",
"                                        . . m &.i G &.@., $ +.o.$                                                       ",
"                                        @ d w.P I =.&.@.J 1 ( o.$                                                       ",
"                                          Z g.F U 5.-.&.+.3 ( ` $                                                       ",
"                                          F g.s.C $ W &.( w K 4                                                         ",
"                                          D y.g.{ f ! &.( 2 N                                                           ",
"                                        O   [ g.g.q.#.&.+.> @                                                           ",
"                                          - 5 0.g.q.@.@.b X                                                             ",
"                                          . . [ u.*.@.^ , .                                                             ",
"                                              8 & > K e .                                                               ",
"                                                + : ) l +                                                               ",
"                                                +   >.  +                                                               ",
"                                                    y 0                                                                 ",
"                                                  @ . .                                                                 ",
"                                                                                                                        ",
"                                                                                                                        ",
"                                                                                                                        ",
"                                                                                                                        ",
"                                                                                                                        ",
"                                                                                                                        ",
"                                                                                                                        ",
"                                                                                                                        ",
"                                                                                                                        ",
"                                                                                                                        ",
"                                                                                                                        ",
"                                                                                                                        ",
"                                                                                                                        ",
"                                                                                                                        ",
"                                                                                                                        "
};
