/* XPM */
static char *_779cdcdfba546b39fbab115d1b782b7zihNoXO2ZoVwEJds[] = {
/* columns rows colors chars-per-pixel */
"60 60 184 2 ",
"   c None",
".  c #010000",
"X  c #0A0500",
"o  c #0D0B01",
"O  c #0B0B0B",
"+  c #060809",
"@  c #100700",
"#  c #130A01",
"$  c #1B0D01",
"%  c #100C09",
"&  c #171206",
"*  c #0E0F10",
"=  c #0F1010",
"-  c #141414",
";  c #1D1915",
":  c #1E1E1E",
">  c #151819",
",  c #210F01",
"<  c #251303",
"1  c #2B1504",
"2  c #251E02",
"3  c #2D1906",
"4  c #20170F",
"5  c #331702",
"6  c #341B05",
"7  c #3A1C04",
"8  c #351E09",
"9  c #3C1702",
"0  c #2C1D12",
"q  c #2A2202",
"w  c #362C03",
"e  c #392C04",
"r  c #3D3203",
"t  c #312115",
"y  c #212222",
"u  c #2D2E2E",
"i  c #36302D",
"p  c #343535",
"a  c #3B3C3D",
"s  c #3C3733",
"d  c #431F03",
"f  c #451605",
"g  c #452003",
"h  c #4B250C",
"j  c #4C290B",
"k  c #492103",
"l  c #522604",
"z  c #572905",
"x  c #473A04",
"c  c #5D330D",
"v  c #5B3F05",
"b  c #4C321A",
"n  c #5D3515",
"m  c #612C04",
"M  c #693005",
"N  c #63360E",
"B  c #6E3508",
"V  c #743505",
"C  c #7D3A06",
"Z  c #733709",
"A  c #783C0B",
"S  c #653A15",
"D  c #433727",
"F  c #463A30",
"G  c #683E21",
"H  c #4F4104",
"J  c #504105",
"K  c #614F06",
"L  c #7E440F",
"P  c #6D5806",
"I  c #725A08",
"U  c #7D4412",
"Y  c #714016",
"T  c #776107",
"R  c #4E433C",
"E  c #6F4327",
"W  c #6B4C37",
"Q  c #7B5032",
"!  c #726530",
"~  c #484645",
"^  c #5A4C41",
"/  c #5D5D5D",
"(  c #757677",
")  c #863E07",
"_  c #883F07",
"`  c #8E4207",
"'  c #854D07",
"]  c #934407",
"[  c #994707",
"{  c #934409",
"}  c #95490A",
"|  c #9B4807",
" . c #804612",
".. c #894513",
"X. c #854912",
"o. c #884B14",
"O. c #924913",
"+. c #9C5517",
"@. c #9A501C",
"#. c #A44C09",
"$. c #AD4D09",
"%. c #AE520A",
"&. c #B25309",
"*. c #B95609",
"=. c #BD590C",
"-. c #A15616",
";. c #A75B19",
":. c #B75B11",
">. c #87650B",
",. c #8B7108",
"<. c #967909",
"1. c #927609",
"2. c #A47E0A",
"3. c #AF601A",
"4. c #B2611A",
"5. c #BB661A",
"6. c #884D23",
"7. c #86572C",
"8. c #A15D21",
"9. c #A1622D",
"0. c #C35A0A",
"q. c #CB5E0A",
"w. c #D05F0B",
"e. c #CF600B",
"r. c #D2610B",
"t. c #D3690B",
"y. c #D9640B",
"u. c #C36B1C",
"i. c #C86816",
"p. c #D66912",
"a. c #D96C14",
"s. c #D36610",
"d. c #CD701D",
"f. c #DC7017",
"g. c #D5751F",
"h. c #DD741B",
"j. c #E1761C",
"k. c #E37B1E",
"l. c #DA7720",
"z. c #DD7921",
"x. c #C86E32",
"c. c #D97B3E",
"v. c #E67E22",
"b. c #E97F22",
"n. c #81756A",
"m. c #A7880A",
"M. c #A5860A",
"N. c #B7960C",
"B. c #BC990C",
"V. c #C4880B",
"C. c #DD810F",
"Z. c #C6990C",
"A. c #DD990D",
"S. c #E1950D",
"D. c #E29B0D",
"F. c #E79D13",
"G. c #CBA50C",
"H. c #CFA80D",
"J. c #D6AD0D",
"K. c #DAB10D",
"L. c #E6A10E",
"P. c #E9AC0F",
"I. c #ECB50E",
"U. c #EABE0E",
"Y. c #EAA116",
"T. c #EAAE14",
"R. c #EDB212",
"E. c #EFBB11",
"W. c #F0B315",
"Q. c #E58222",
"!. c #EB8122",
"~. c #E78528",
"^. c #F08423",
"/. c #EEC20E",
"(. c #F1C50E",
"). c #F1C40F",
"_. c #FACB0F",
"`. c #F6C80F",
"'. c #D2B196",
"]. c #F4CCA9",
"[. c #C8C8C9",
"{. c #F8D9C0",
"}. c #FAEEE1",
"|. c white",
/* pixels */
"                                                                                                                        ",
"                          . . . . . . . . . .                                                   + .                     ",
"                        p . . . . . . . . . .                                                   X .                     ",
"                        p X . . . . . . . . .                                                   . .                     ",
"                        7.U U U U  .U U A V V                                                 Q Z V                     ",
"                    . X -.!.b.b.b.b.b.b.f.r.q.9 . -                                       + . V r.r.5 . y               ",
"                    . X +.b.v.v.v.v.v.v.a.w.q.7 . >                                       + . V r.w.5 . y               ",
"                    c n 5.b.v.v.v.v.v.v.h.a.s.A l n                                       . . V r.r.V l G               ",
"              - O S v.v.v.Q.v.b.v.v.v.v.z.v.v.s.q.&.4 *                                   + . V r.r.r.w.&.0 *           ",
"              . . N v.v.v.v.v.v.v.v.v.v.v.v.v.y.r.&.o .                                   . . V r.r.r.r.*.$ .           ",
"              . . N v.v.v.v.v.b.v.v.v.v.v.v.v.p.y.&.# .                                   . . V r.r.r.r.*.$ .           ",
"              . . N v.v.v.v.v.v.v.b.v.v.v.v.v.v.v.u.# .                                   + . V r.r.w.r.*.$ .           ",
"              . . N v.v.v.v.v.v.v.v.v.Q.v.v.v.v.!.u.# .                                   X . V r.r.r.r.*.$ .           ",
"              3 < U v.z.v.v.v.v.v.v.v.b.v.b.v.v.v.u.5 < ^                                 < , ) r.r.r.y.=.7 , D         ",
"          + 8 5.u.l.v.v.v.v.v.v.v.v.v.v.v.v.v.v.Q.l.&.&...= O                       O O h $.&.0.r.r.f.j.f.*.&...% O     ",
"        p . & l.Q.b.v.v.v.v.v.v.v.v.v.v.v.v.v.v.v.v.y.y._ . .                       . . d w.r.r.r.r.j.Q.h.s.y.` X .     ",
"        s X 3 l.v.v.v.v.!.k.k.k.k.k.k.v.b.v.v.v.v.v.r.r.` . .                       . . d q.w.r.r.r.h.k.h.y.r.` X .     ",
"    a ~ 9.;.4.v.v.v.Q.v.k.Q.!.].{.'.N c ;.v.v.v.v.k.r.r.) . .                       . . d q.r.s.h.j.L.P.L.t.r.` X .     ",
"    . X 4.!.v.v.v.v.v.b.Q.k.~.}.|.[.O . o.v.v.v.v.k.r.y.) X .                       . . d q.w.h.Q.v.R.(.I.t.r.` X .     ",
"    . X 4.!.v.v.v.v.v.v.v.b.~.}.|.[.O . o.!.v.v.v.v.r.r.) . .                       . . d q.r.a.v.v.R.(.I.t.r.{ X .     ",
"    . o 3.!.v.v.v.v.v.v.v.v.z.( ( / + . o.b.v.a.a.a.r.r.&.Z V f .                   . . d q.w.C.F.F.E.(.I.t.r.` X .     ",
"    . o 3.b.v.v.b.v.v.v.v.v.l.< . . . . o.b.v.p.w.r.r.q.r.y.y.l . .                 . . d q.q.S.).).).(.I.t.r.` X .     ",
"    . o 3.v.v.v.v.v.v.v.v.v.l.3 . . . . o.b.k.r.r.r.r.r.w.r.w.l . .                 . . d q.r.S.).).).`.I.t.y.{ X .     ",
"    . o 3.!.v.v.v.v.!.v.v.z.l.3 . . . . o.b.v.r.q.r.r.r.r.w.r.l . .                     W { { V.).).N.M.2.} ` 6.~ ~     ",
"    . o ;.b.v.v.v.v.v.v.v.b.l.1 . . . . o.b.Q.r.r.r.e.r.r.r.w.l . .                       X . ,.(./.r . . X .           ",
"    . o 4.^.b.v.v.v.v.v.v.b.l.3 . . . . o.Q.v.s.r.r.r.r.r.q.r.l . .                       . . ,.(./.e . . . .           ",
"    - ; 8.5.5.h.j.j.v.v.v.v.l.N j j j j -.j.h.y.q.r.r.r.r.r.r.C d g                       . . >.W.R.w . + + +           ",
"        F $ 7 q.r.a.v.b.v.v.v.z.z.l.z.z.a.r.r.r.r.r.r.r.e.r.r.q.q.=.t -                   . . X.!.Q.8 . 4               ",
"        u . $ 0.w.a.k.b.v.v.v.v.v.b.v.b.a.r.r.r.e.r.e.r.r.r.q.r.r.0.$ . p                 . . U b.v.8 . y               ",
"        u . , *.0.i.g.g.h.v.v.v.k.k.k.v.a.q.r.r.r.r.r.r.r.r.r.r.r.0.1 @ F                 $ $ o.b.k.8 . y               ",
"              $ # # $ & } r.r.y.r.r.r.r.r.r.r.r.r.r.w.r.r.r.r.r.r.q.0.0.} X .       . . h d.g.z.v.v.7 . y               ",
"              . . . . . ` y.r.r.r.r.r.r.r.r.r.r.q.r.r.r.r.q.r.r.w.r.r.y.| X .       . . j z.b.v.v.v.t . y               ",
"              - - > - ; O.q.q.q.q.q.q.q.q.e.r.r.r.r.q.q.q.r.e.r.r.r.e.r.[ X .       $ # c z.v.v.z.z.b - p               ",
"                        W g g g g g g g ] r.q.r.r.*.l d ` r.w.r.r.e.r.r.[ X . O O ; ] $.*.v.b.-.j j                     ",
"                        p . . . . . . . C r.r.e.r.&.o . M r.r.r.r.r.r.r.[ X . . . X &.y.p.v.b.o.. .                     ",
"                          . . . . . . X C r.r.r.r.&.# . M r.r.q.w.r.r.r.| o . . . X &.w.p.v.b.o.X .                     ",
"                              - . w M.m.Z.L.A.' m V +.-.5.h.h.p.r.r.r.r.0.] ] k . X $.y.p.k.b.... .                     ",
"                              > . H /.(.).)./.x . 5 z.!.b.v.v.a.w.r.r.q.r.r.y.M . X &.r.s.v.b.o.. .                     ",
"                              > . H E.).).).U.x . 3 z.!.!.!.!.a.w.r.r.r.r.r.r.M . X &.w.a.!.^.o.. .                     ",
"                              > . H /.).).).E.<.I I U  . . .o.=.r.r.r.e.r.q.r.M . X &.r.=.o.U A X .                     ",
"                              > . H /.(.(.).).`._.J.# . . . . [ r.e.r.r.r.w.r.M . X &.r.$.o .                           ",
"                              > . J /.(.(./.).).(.H.# . . . X [ r.w.r.r.r.r.r.M . X &.r.$.# .                           ",
"                              ~ a ! N.N.J.(.).).(.K.P K v l z &.r.r.r.r.r.w.r.M . X ) #.@.R a                           ",
"                          . X       o o <.`.)./.(./././.D.e.q.r.r.r.r.r.w.r.r.M . . X X i                               ",
"                        p . .       . . 1._.)././.(.(.(.D.w.r.r.w.r.r.w.r.r.y.M . . . . u                               ",
"                          * -       . . T H.H./.(.(.(.(.D.w.r.r.r.r.r.r.0.&.&.z . . O O                                 ",
"                              u : - . . & q w G.).).(.(.D.r.r.r.r.r.q.r.#.1 , # . .                                     ",
"                              - . . . . . . o Z.).).(.(.D.w.r.q.r.r.r.r.[ X . . . .                                     ",
"                              O . . . . . . o B./.U.U.U.A.q.q.r.r.r.q.q.] X . . . .                                     ",
"                                              D 2 2 2 2 < $ < #.r.0.7 , $ . .                                           ",
"                                              y . . . . . . X [ r.*.$ . . . .                                           ",
"                                              p - * . . O * - | y.0.0 = O . .                                           ",
"                                                    . . p     x.r.e.      + .                                           ",
"                                                    . .       c.r.r.      . .                                           ",
"                                                    . .       c.p.y.      . .                                           ",
"                                                              E V B ^                                                   ",
"                                                          + + . . . + . p                                               ",
"                                                          . . . . . . . p                                               ",
"                                                          . . . . . . .                                                 ",
"                                                                                                                        "
};
