/* XPM */
static char *dbf685e569a74f9caa1961ef0ab36eadEZWrSat3Pr01S5Xw[] = {
/* columns rows colors chars-per-pixel */
"60 60 230 2 ",
"   c #343E2E",
".  c #3E3F32",
"X  c #2E3D2C",
"o  c #423E32",
"O  c #3B4636",
"+  c #3C513D",
"@  c #434236",
"#  c #454639",
"$  c #4C453A",
"%  c #4B4A3D",
"&  c #444A3B",
"*  c #51493E",
"=  c #53453E",
"-  c #42503F",
";  c #3F5642",
":  c #4C4E41",
">  c #474F40",
",  c #544D42",
"<  c #5B4C45",
"1  c #5E4F48",
"2  c #465242",
"3  c #4B5344",
"4  c #4D5B4A",
"5  c #485947",
"6  c #535245",
"7  c #5A5147",
"8  c #555649",
"9  c #5C544A",
"0  c #535B4C",
"q  c #5A5B4E",
"w  c #5C5E51",
"e  c #4F5F52",
"r  c #624E48",
"t  c #63544C",
"y  c #69544E",
"u  c #62594E",
"i  c #6C5650",
"p  c #645B51",
"a  c #6C5B53",
"s  c #725C56",
"d  c #765F59",
"f  c #4D614E",
"g  c #47604B",
"h  c #50614E",
"j  c #4F6350",
"k  c #536453",
"l  c #5C6354",
"z  c #536A56",
"x  c #556C5A",
"c  c #5B6D5B",
"v  c #596758",
"b  c #5B725D",
"n  c #55705C",
"m  c #636256",
"M  c #656659",
"N  c #6C6459",
"B  c #646D5D",
"V  c #6B6A5D",
"C  c #6B6156",
"Z  c #74635B",
"A  c #72695E",
"S  c #79625C",
"D  c #63705E",
"F  c #5C7462",
"G  c #5D7B65",
"H  c #5C7B68",
"J  c #5A6F60",
"K  c #6C6F61",
"L  c #666E63",
"P  c #756C62",
"I  c #7B6D64",
"U  c #7F6661",
"Y  c #647463",
"T  c #6C7363",
"R  c #647A65",
"E  c #697A67",
"W  c #647C6A",
"Q  c #6C7C6A",
"!  c #6A766A",
"~  c #737366",
"^  c #737668",
"/  c #7C756A",
"(  c #737C6C",
")  c #7A786C",
"_  c #7C7E70",
"`  c #6D7D70",
"'  c #83756C",
"]  c #877C72",
"[  c #816A64",
"{  c #5D856B",
"}  c #64836C",
"|  c #6C836D",
" . c #60886D",
".. c #72816E",
"X. c #6C8573",
"o. c #6C8B74",
"O. c #668A74",
"+. c #748572",
"@. c #7B8574",
"#. c #738B75",
"$. c #7A8976",
"%. c #748E7A",
"&. c #7C8B79",
"*. c #738778",
"=. c #6C947B",
"-. c #6A957A",
";. c #74937D",
":. c #7B937D",
">. c #73997F",
",. c #838C7C",
"<. c #89877A",
"1. c #93847C",
"2. c #83917F",
"3. c #6D9B83",
"4. c #7C9481",
"5. c #749B83",
"6. c #7B9B84",
"7. c #7D9C8A",
"8. c #749783",
"9. c #6EA486",
"0. c #74A286",
"q. c #75A58B",
"w. c #7CA48B",
"e. c #75AB8C",
"r. c #7BAB8D",
"t. c #7AA187",
"y. c #67B58D",
"u. c #7CAC93",
"i. c #76AB91",
"p. c #6CBB94",
"a. c #6BBC99",
"s. c #6BB790",
"d. c #74B392",
"f. c #7CB394",
"g. c #73BC96",
"h. c #7CB59A",
"j. c #74BD9C",
"k. c #7BBB9C",
"l. c #7ABA97",
"z. c #74B28F",
"x. c #7CBFA0",
"c. c #6CC19C",
"v. c #73C49B",
"b. c #7BC29D",
"n. c #73C99E",
"m. c #75C6A3",
"M. c #7CC3A3",
"N. c #74CDA2",
"B. c #7CCAA5",
"V. c #74D1A4",
"C. c #8D8F80",
"Z. c #988D83",
"A. c #849482",
"S. c #8B9383",
"D. c #839B85",
"F. c #849D89",
"G. c #8C9C89",
"H. c #8C9987",
"J. c #939D8C",
"K. c #9B9C8E",
"L. c #969487",
"P. c #9D9E90",
"I. c #A2958C",
"U. c #A59D92",
"Y. c #83A38B",
"T. c #8BA28D",
"R. c #84A88F",
"E. c #92A28F",
"W. c #83A592",
"Q. c #83AB93",
"!. c #8BAC94",
"~. c #8CAD9A",
"^. c #89A995",
"/. c #94A491",
"(. c #9CA494",
"). c #93AB96",
"_. c #95AD99",
"`. c #9DAC99",
"'. c #9BAA97",
"]. c #83B296",
"[. c #84B59A",
"{. c #8BB49C",
"}. c #84BC9C",
"|. c #8ABB9E",
" X c #8BB097",
".X c #93B39C",
"XX c #9AB29C",
"oX c #91B99E",
"OX c #A2A395",
"+X c #ABA599",
"@X c #A4AB9B",
"#X c #ABAB9E",
"$X c #A8A397",
"%X c #B1A99E",
"&X c #A3B19F",
"*X c #84BCA1",
"=X c #8CBCA3",
"-X c #8BB7A0",
";X c #93B5A2",
":X c #9BB6A2",
">X c #93BBA3",
",X c #9CBBA4",
"<X c #98BCA8",
"1X c #ADAEA0",
"2X c #B3AEA2",
"3X c #A6B5A2",
"4X c #ACB3A3",
"5X c #A5BBA6",
"6X c #B4B2A5",
"7X c #BBBBAE",
"8X c #B7B8AA",
"9X c #BEBFB1",
"0X c #C1BDB1",
"qX c #83C19F",
"wX c #83C4A3",
"eX c #8BC2A4",
"rX c #85C6A8",
"tX c #8BC4A9",
"yX c #87CAA7",
"uX c #93C2A5",
"iX c #96C6AA",
"pX c #95CDB2",
"aX c #95D3B4",
"sX c #8FD0AF",
"dX c #A2C6AC",
"fX c #A6CCB2",
"gX c #ADD5BA",
"hX c #AAD0B6",
"jX c #B4C7B3",
"kX c #C3C3B5",
/* pixels */
"V.V.V.V.V.n.n.n.b.l.l.l.].r.2.z.>.#.| { D R R D | | -.2.R. XuXdXfXgXgXgXgXfXuXXXE.D.#.E D T D T ( ( ..$.2.>.r.|.uXyXsXsX",
"V.V.V.V.N.n.n.n.b.b.b.l.l.r.z.>.2.-.| | E E E E ..| -.2.R.oXuXuXfXhXgXgXfXdX5XoXD.2.$.E E T ~ E ( ( ..$.2.0.r.oXuXsXsXfX",
"V.V.V.V.N.n.n.v.b.g.l.l.].R.2.z.2.#.| | E | ....,.| ,.2.R.R.oXuXfXhXgXhXfXdXoXE.D.,.$.| ( ( ( ....) @.$.>.2.r. XqXuXsXsX",
"V.V.V.V.n.n.v.v.l.l.l.l.r.r.z.2.>.#.,.#...| ,.,.| | #.2.2.R.oX5XdXhXgXfXdXXXE.D.2.,.$.@.@.@.@.<.@.@.$.$.#.>.t.R.qXuXuXuX",
"V.N.N.N.n.n.c.v.g.l.z.z.r.r.z.>.2.>.2.2.2.2.2.2.,.| | ,.2.r. XuXdXfXfXdXuXR.t.,.,.,.,.,.,.,.,.,.2.<.$.$.| #.>.0.R.qXuXqX",
"V.V.V.N.n.n.v.v.g.z.z.r.r.r.>.2.2.2.2.2.E.R.2.2.,.#.#.-.2.0.R. XuXdXfXdX!.D.#. .|  .,.J.E.E.E.K.OX2.<.$.| | #.>.R.l.l.qX",
"V.N.N.N.v.v.g.g.g.z.z.z.>.>.z.>.2.2.).'.&X(.2.2.,.| | ,.-.,.2.r.oX5XdXoXD.,.G b R ..2.(.&X&X4X4X%XP.2.$.E D  .-.0.z.z.g.",
"V.B.N.n.v.v.v.g.s.z.>.z.>.r.>.>.0.R.'.&X5X&X@X2.,.,.,.#.#.-.2.t. XoXuX X2. .b h b #.H.@X4X7X7X9X6XOX2.@.D b  . .>.0.r.z.",
"n.n.v.v.n.n.v.z.z.y.>.>.>.>.>.2.2.E.&X5X8X6X@X(.2.2.,.,.| | #.2.R.XXoX).2.G h h b ,.E.4X9XkXkX0X7X@X1.$.T b R  .>.0.z.0.",
"v.v.v.v.n.qXqXg.z.>.>.>.>.>.>.2.E.E.&X4X5X4X1X@X@X2.2.2.,. .-.>.R.oXXX!.2.G z h D ,.2.4X7XkXkXkX9X2XK.,.E E  .| >.0.z.z.",
"y.v.v.c.v.qXqXv.s.-.-.-.-.2.2.2.'.`.&X4X8X4X1X#X#X(.2.2.,.| | ,.R.R.oXE.>. .b b D ,.2.8X7XkXkXkX9X2XP.,...E | #.>.r.r.r.",
">.c.s.s.v.N.qXqXs.y.-.-.-.>. X).&X&X@X@X@X#X1X1X2X@X@X2.,.| |  .2.R.).R.2. .D D E ,.E.1X8X9X0X0X8X2X(.1.$.| #.>.R.R. XqX",
"y.c.s.v.v.qXyXqXg.>. . .-.-.!.oX3X&X@XOXOXOX#X4X8X6X#XE.,.| | #.2.r. X!.2.#.| | ,.2.OX#X2X7X0X0X8X%XOX1.,.$.:.D.R. XoXoX",
"y.y.y.y.n.yXyXqXg.>. .{  .>.2.XX&X&X@X(.@X1.+X4X7X6X@X(.#. .| #.2.T.).).t.,...( ..2.(.#X2X8X2X6X2X+XP.1.,.$.2.R.R.oXoXuX",
"-.y.c.v.b.yXyXqXg.>. .{  .#.2.).`.@X@XOX(.OX+X1X4X1X@X2.,.E E ,.R.R.XX).D.,.| E ,.2.2.2X%X6X2X2X%X%X1.<.$...$.D.R. XuXoX",
"p.p.c.y.b.qXqXqXz.>. .{ } | 2.!.E.(.@X@X$X@X#X2X#XOX2.,.E D D  .2.R.XXoX2.#.E E ( 1.2.%X2X6X2X%X+X1.1.<.~ E | :.R.oXoXuX",
"g.g.g.b.qXuXqXqXr.0. . . .| $.$.2.'.@X1X1X2X%X+XOX1.,...T D E ,.2.5X5XXX2.| D h D <.2.+X2X2X2X+XU.1.<.K l l } #.2.!.oXuX",
"b.g.l.b.qXqXqXqXr.>. . .| | | $.,.1.OX1X6X6X%XOX1.2._ T D D R | R.&XdX&X2...l 4 C ( 1.+X2X2X%XU.1.<.P m * 5 l | 2.R..XoX",
"qXb.n.qXqXqXqX Xr.0.-.| | E E | ,.1.(.1X8X6X%X(.2.<.V D l l R ,.E.5XjX3X2.T h % u ~ 1.@X2X2X2X1.1.1.N * & & h D >.R. XoX",
"qXb.qXqXqXqXqX XR.>.#. .| E T E ( <.2.+X8X9X1.1.<./ V m l b E #.E.5XjX5X2.E 3 & 8 ~ 2.1.%X8X1.1.1.<.p % @ & 6 b #.Y.!..X",
"qXqXqXqXqXuXqXl.R.t.#.#...E T K ~ <.<.1.%X+X1.1.' ~ V N m D ( ,.`.5XjX&X,.B 5 @ 6 C ) 1.1.+X1.1.<.[ r $ @ @ 4 b #.>.!. X",
"uXqXqXqXqXqXqXoX Xr.>.#...E T D V ~ <.<.1.1.<.' I A V V D V | ,.2.&X4X@X,.D 6 @ % u S <.1.1.1.1.[ [ y * # % 0 D #.2.T.!.",
"oXqXqXqXuXuXuXoXR.R.:.$...( ~ T V A ~ I / / / I I I A ~ ~ ~ ..,.`.&X&X(.,.D 6 & % 9 C I ' <.[ [ [ S y * * * l D #.2.Y.T.",
"qXqXqXuXuXuXoXoX XR.:.$.@.( ~ ~ V A A C C s S S I A I / ) _ <.2.2.`.`.2.<.V 6 $ $ 6 u C S [ [ [ [ S i r * * m D +.:.R.2.",
"l.qXqXoXuXuXuXoX XR.,.$.....~ T A C u t < t i s Z A / / / ) ,.2.2.4X&X2.1...6 % * * < y a s s [ d s i y < 9 m | #.2.2.Y.",
"l.oXqXqXuXuXuX XR.R.:.$.( ( ~ T V C t < < 7 t i Z S I / / ( <.2.2.@X#X2.,.V 6 % $ * < t a a s d [ s i r r 9 p ..$.2.Y.Y.",
"qXl.oXoXuXuXuXoXR.D.:.| ( T T A V C t < * < t i S S I / / ~ ] ,.2.4X&X@X<.B 6 % $ * < u u s s [ s i i y 9 u V ..,.2.T.!.",
"oXqXoXqXuXuXuXoXR.D.#.E T T T T A C i t < < t i A A I A K K ) ,.2.@X&X2.,.B q % % * 9 u a a s Z [ i i y 9 u A ..2.T.)._.",
"l.oXqXoXuXuXuXoXR.:.#.E D V K V V V C t t 7 i a s Z A A V V ( @.`.&X3X`.<...w % * 7 u C C Z Z s [ s i y u p ..<.H./.XXXX",
"qXl.qXqXqXuXuXoXr.>.| D D D D V A V C t t t i s Z Z V V C V T ,.2.3X4X`.,...l 6 6 6 u C N Z Z [ s s i t u m ....T.'.XX5X",
"l.oXoXqXqXuXoXoXt.2.| D D D D V V C a u t t a s Z A A N N B ( ,.2.5X3X`.2.<.l 6 * 6 u C C s s s s s y t 9 m A ,.E.'.:X5X",
"l.l.l.qXuXuXoX XR.>.| D D D B B C C u t 7 t a s A Z A V B V ( ,.2.`.3X'.2.T h : % 6 9 u a C C s d i t t u u ..,.T.XXXX5X",
" XoXl.oXl.oXoXoXt.2.| R D D V C L 9 1 1 1 1 y a Z L P P ^ ( @.&.J.XX&XJ.2.! l % : , , < r r y i i y r r t a ^ &.J._.:X3X",
" Xl. Xl.oXoXoX Xr.2.,.| E D D C a p 7 7 1 1 t a Z P I ^ ( _ &.A./._.XX/.&.T 0 % # # $ = < < < 1 y r r y 9 M ^ $.G.).;X:X",
" Xl.l. X|. XoX XR.t.,. .E T B m p 9 7 , , < t a Z S ~ ) _ @.2.A.E.)._.G.@.Y 4 & @ @ $ $ = = < < r r r r w p ! @.H./._.;X",
"l.R.l. XoXl. X XR.2.2.#...T B l w 9 , , , < 1 p C L ~ ) _ $.A.H.E.).).F.*.B 3 @ . o @ $ = = < < r < 1 < 9 p ! @.A.T._._.",
"R.l.R.oXl.oX X XR.r.2.#...T m l q 6 , , , < 9 u p L K ^ ` &.2.D.T._._.F.+.c 2 O . o o $ = , < < r < < , 7 q B ( 4.G.!. X",
"R.l.l.l.l.oX Xl. X2.>.#.| D l h 6 6 , 7 8 < 1 w p p a L ^ ` &.4.T._._.G.+.v 2 O   o @ : , < < < r < < , , 8 c Q :.F.W.!.",
"qXl.oXqXoXqXoXoXR.2.,.| | D l 8 6 : 6 7 7 7 7 9 9 q w L L E *.&.W.).).F.X.v 2     . > , 9 9 9 9 u 1 , , % 3 v Y %.6.Y.Q.",
"qXl.l.oXqXoXoX|.].r.>.| | D h 4 : : 3 8 q 8 7 8 8 8 w e v Y X.;.W.^.^.F.X.z + X   . : 8 w p p p t 1 , $ # - k F %.8.w.Y.",
"l.}.}.qXuXqX|.|.].2.>.#. .b h 6 - 3 6 8 8 8 8 , : 3 3 4 e c H 8.Y.!..XY.O.g O O   O 3 l m m p m p 9 , & @ + g b ` 8.7.7.",
"}.k.qXqXqXeXqX|.].l.>.>.| } h 4 3 3 3 8 8 q 6 : : 2 3 4 k x W X.Y. X XY.-.n + O   - 3 w m m p M p 9 , & O & f n O.3.q.q.",
"b.qXqXqXeXqX|.|.|.R.2.>.| } b h 3 5 3 3 8 8 3 3 > > 5 g k J W 8.w.]. XR.-.b g + - 2 e w l m v p w 9 6 > > > j J O.3.7.i.",
"wXwXwXqXeXeXqX|.].R.>.>.| } b h 4 4 4 3 3 3 3 > > 2 5 j z J H O.w.Q.].R.;.{ z g 5 5 e e w l w l w 9 6 3 2 5 z H ` 3.3.i.",
"wXwXwXwXyXqXqX|.].].].>.#.| { h f 4 5 3 3 > > - 2 2 4 z J H O.3.t.].].Y.8.O.b z f f 4 0 e 0 q w q 9 8 4 4 f x { 3.3.q.q.",
"qXwXB.qXyXqXqXqXqX].r.2.:.| | b v f 5 3 > > > 2 3 5 f x H H O.3.t.r.].r.t.=.O.G n v k 0 e q q 0 w q w 0 h z b } O.3.q.q.",
"B.qXqXb.uXqXqXqX].].R.>.2.;.| D c v e 3 3 2 2 2 5 f z b H H 3.3.w.Q. XQ.w.6.;.} W b z k 0 e w w l w l v v c W =.=.0.i.q.",
"b.b.B.wXqXqXqXqXqX].].qX2.:.| } F v k 5 5 2 2 3 4 g z F H O.O.i.r.f.].].R.w.8.=.| W c k v l v k m l M B b F X.=.3.0.i.i.",
"b.b.x.x.M.x.wXwX*X=X-X~.u.7.8.*.! H J e e e e e e e J H { 3.3.3.u.f.[.[.[.u.7.8.O.` H J J J J J L L L ! H H *.3.3.i.i.i.",
"x.k.x.x.x.M.*XrX*X*X-Xh.u.7.7.8.` ` J J x x x e x x H H { 3.3.3.f.h.[.*X[.u.q.7.3.*.H H L L L H ! ! ! ! ` O.O.3.i.i.h.h.",
"a.j.j.k.x.M.M.rXpX*X=X=X-Xu.7.7.8.` ` H H J J J J H H H 3.3.3.i.h.[.*X*X-Xh.u.u.8.8.3.` ` ` ` ` ` *.*.*.*.O.3.3.i.i.h.h.",
"a.a.a.j.x.M.M.rXrXrX=X=X;X~.u.7.8.8.O.` ` H ! H H H O.O.3.3.y.i.h.x.*X*X*X-X[.Q.i.8.*.*.*.O.*.*.*.*.*.*.8.8.8.3.i.h.h.h.",
"a.a.j.a.x.m.M.M.rXrX=X=X=X-X~.u.7.8.8.*.` ` ` O.*.O.3.3.3.i.i.i.x.x.x.rX*X*X=X-Xu.7.7.8.8.*.*.4.2.4.8.8.8.8.3.i.i.h.x.x.",
"a.a.a.j.c.m.M.M.x.pXpX*X=X-X~.h.W.7.7.8.8.8.8.8.8.8.8.3.i.i.i.h.h.x.x.*X=XtX=X*X-Xu.7.7.7.7.F.7.7.H.F.7.8.8.q.i.h.h.x.x.",
"a.a.a.c.j.m.B.B.rXB.rX*X<X=X-X~.~.W.7.7.7.7.7.8.7.7.7.i.i.i.h.a.x.x.x.M.M.=XtXiX-X-XW.u.7.W.7.^.^.J.7.7.7.7.i.i.h.x.x.m.",
"a.a.a.c.c.m.m.M.rXrXrXpX=X=X-X-X~.~.~.W.W.W.W.7.W.u.u.u.h.a.h.x.x.a.x.rXrXsXtXpXpX;X-X~.W.~.^.~.~.~.~.~.u.u.h.h.x.*XM.rX",
"a.c.c.c.m.m.m.B.B.B.tXtXpX*X*X=X~.~.-X~.~.~.~.~.~.~.~.h.*Xx.x.x.a.x.x.x.B.sXpXpXpX=X=X-X~.~.-X;X;X@X~.~.~.h.h.h.-XM.M.rX",
"a.c.c.c.c.m.m.m.B.B.rXtX=X=X=X=X-X-X-X-X;X;X;X;X-X-X-X*X*Xx.x.x.x.a.j.j.x.sXpXpXpX=X=X-X-X-X;X;X;X;X~.~.~.h.h.h.rX*XM.m.",
"c.c.c.c.c.m.m.V.B.B.rX=XpX*X=X=X-X;X;X;X;X;X;X;X;X<X=X=Xx.x.x.x.x.a.a.x.rXpXpXaXpXpX=X=X-X;X;X<X:X<X;X~.-Xh.-Xh.*XM.M.rX",
"a.c.c.c.c.m.m.c.x.B.rXtX=X=X=X<X=X=X<X;X;X;X<X<X<X=XpX=X=Xx.x.x.a.j.a.x.B.sXaXpXpXpX<X<X=X<X<X<X<X;X;X;X~.h.-X-XM.M.rXm."
};
